<?xml version="1.0" standalone="no"?>
 <!DOCTYPE svg PUBLIC "-//W3C//DTD SVG 1.1//EN" 
 "http://www.w3.org/Graphics/SVG/1.1/DTD/svg11.dtd"> 
<svg
  xmlns:svg="http://www.w3.org/2000/svg"
  xmlns="http://www.w3.org/2000/svg"
  xmlns:xlink="http://www.w3.org/1999/xlink"
  version="1.1"
  width="29.700220cm" height="21.000720cm" viewBox="0 0 116930 82680">
<title>SVG Picture created as remoteCtrlSender.svg date 2023/04/08 22:28:22 </title>
  <desc>Picture generated by Eeschema-SVG </desc>
<g style="fill:#000000; fill-opacity:1;stroke:#000000; stroke-opacity:1;
stroke-linecap:round; stroke-linejoin:round;"
 transform="translate(0 0) scale(1 1)">
</g>
<g style="fill:#000000; fill-opacity:0.0; 
stroke:#000000; stroke-width:0; stroke-opacity:1; 
stroke-linecap:round; stroke-linejoin:round;">
<g >
</g>
<g style="fill:#840000; fill-opacity:0.0; 
stroke:#840000; stroke-width:0; stroke-opacity:1; 
stroke-linecap:round; stroke-linejoin:round;">
</g>
<g style="fill:#FFFFC2; fill-opacity:0.0; 
stroke:#FFFFC2; stroke-width:0; stroke-opacity:1; 
stroke-linecap:round; stroke-linejoin:round;">
</g>
<g style="fill:#FFFFC2; fill-opacity:0.6; 
stroke:#FFFFC2; stroke-width:0; stroke-opacity:1; 
stroke-linecap:round; stroke-linejoin:round;">
<rect x="35500" y="45000" width="10000" height="13000" rx="0" />
</g>
<g style="fill:#840000; fill-opacity:0.6; 
stroke:#840000; stroke-width:0; stroke-opacity:1; 
stroke-linecap:round; stroke-linejoin:round;">
</g>
<g style="fill:#840000; fill-opacity:0.0; 
stroke:#840000; stroke-width:100; stroke-opacity:1; 
stroke-linecap:round; stroke-linejoin:round;">
<rect x="35500" y="45000" width="10000" height="13000" rx="0" />
<rect x="35500" y="45000" width="10000" height="13000" rx="0" />
</g>
<g style="fill:#840000; fill-opacity:0.0; 
stroke:#840000; stroke-width:60; stroke-opacity:1; 
stroke-linecap:round; stroke-linejoin:round;">
<path d="M35500 46000
L34500 46000
" />
</g>
<g style="fill:#008484; fill-opacity:0.0; 
stroke:#008484; stroke-width:60; stroke-opacity:1; 
stroke-linecap:round; stroke-linejoin:round;">
<text x="35700" y="46250"
textLength="1420" font-size="660" lengthAdjust="spacingAndGlyphs"
text-anchor="start" opacity="0">~RST</text>
<path d="M35730 45580
L36230 45580
" />
<path d="M36130 46220
L35960 45980
" />
<path d="M35840 46220
L35840 45720
L36030 45720
L36080 45750
L36110 45770
L36130 45820
L36130 45890
L36110 45940
L36080 45960
L36030 45980
L35840 45980
" />
<path d="M36230 45580
L36700 45580
" />
<path d="M36320 46200
L36390 46220
L36510 46220
L36560 46200
L36580 46170
L36610 46130
L36610 46080
L36580 46030
L36560 46010
L36510 45980
L36420 45960
L36370 45940
L36340 45910
L36320 45860
L36320 45820
L36340 45770
L36370 45750
L36420 45720
L36530 45720
L36610 45750
" />
<path d="M36700 45580
L37080 45580
" />
<path d="M36750 45720
L37030 45720
" />
<path d="M36890 46220
L36890 45720
" />
</g>
<g style="fill:#840000; fill-opacity:0.0; 
stroke:#840000; stroke-width:60; stroke-opacity:1; 
stroke-linecap:round; stroke-linejoin:round;">
<text x="35000" y="45900"
textLength="540" font-size="660" lengthAdjust="spacingAndGlyphs"
text-anchor="middle" opacity="0">1</text>
<path d="M35140 45870
L34850 45870
" />
<path d="M35000 45870
L35000 45370
L34950 45440
L34900 45490
L34850 45510
" />
<path d="M35500 53000
L34500 53000
" />
</g>
<g style="fill:#008484; fill-opacity:0.0; 
stroke:#008484; stroke-width:60; stroke-opacity:1; 
stroke-linecap:round; stroke-linejoin:round;">
<text x="35700" y="53250"
textLength="1870" font-size="660" lengthAdjust="spacingAndGlyphs"
text-anchor="start" opacity="0">MISO</text>
<path d="M35840 53220
L35840 52720
L36010 53080
L36180 52720
L36180 53220
" />
<path d="M36420 53220
L36420 52720
" />
<path d="M36630 53200
L36700 53220
L36820 53220
L36870 53200
L36890 53170
L36920 53130
L36920 53080
L36890 53030
L36870 53010
L36820 52980
L36730 52960
L36680 52940
L36650 52910
L36630 52860
L36630 52820
L36650 52770
L36680 52750
L36730 52720
L36840 52720
L36920 52750
" />
<path d="M37230 52720
L37320 52720
L37370 52750
L37420 52790
L37440 52890
L37440 53050
L37420 53150
L37370 53200
L37320 53220
L37230 53220
L37180 53200
L37130 53150
L37110 53050
L37110 52890
L37130 52790
L37180 52750
L37230 52720
" />
</g>
<g style="fill:#840000; fill-opacity:0.0; 
stroke:#840000; stroke-width:60; stroke-opacity:1; 
stroke-linecap:round; stroke-linejoin:round;">
<text x="35000" y="52900"
textLength="1010" font-size="660" lengthAdjust="spacingAndGlyphs"
text-anchor="middle" opacity="0">10</text>
<path d="M34900 52870
L34610 52870
" />
<path d="M34760 52870
L34760 52370
L34710 52440
L34660 52490
L34610 52510
" />
<path d="M35210 52370
L35260 52370
L35300 52400
L35330 52420
L35350 52470
L35380 52560
L35380 52680
L35350 52780
L35330 52820
L35300 52850
L35260 52870
L35210 52870
L35160 52850
L35140 52820
L35110 52780
L35090 52680
L35090 52560
L35110 52470
L35140 52420
L35160 52400
L35210 52370
" />
<path d="M35500 54000
L34500 54000
" />
</g>
<g style="fill:#008484; fill-opacity:0.0; 
stroke:#008484; stroke-width:60; stroke-opacity:1; 
stroke-linecap:round; stroke-linejoin:round;">
<text x="35700" y="54250"
textLength="2300" font-size="660" lengthAdjust="spacingAndGlyphs"
text-anchor="start" opacity="0">GPIO9</text>
<path d="M36110 53750
L36060 53720
L35990 53720
L35920 53750
L35870 53790
L35840 53840
L35820 53940
L35820 54010
L35840 54100
L35870 54150
L35920 54200
L35990 54220
L36030 54220
L36110 54200
L36130 54170
L36130 54010
L36030 54010
" />
<path d="M36340 54220
L36340 53720
L36530 53720
L36580 53750
L36610 53770
L36630 53820
L36630 53890
L36610 53940
L36580 53960
L36530 53980
L36340 53980
" />
<path d="M36840 54220
L36840 53720
" />
<path d="M37180 53720
L37270 53720
L37320 53750
L37370 53790
L37390 53890
L37390 54050
L37370 54150
L37320 54200
L37270 54220
L37180 54220
L37130 54200
L37080 54150
L37060 54050
L37060 53890
L37080 53790
L37130 53750
L37180 53720
" />
<path d="M37630 54220
L37730 54220
L37770 54200
L37800 54170
L37840 54100
L37870 54010
L37870 53820
L37840 53770
L37820 53750
L37770 53720
L37680 53720
L37630 53750
L37610 53770
L37580 53820
L37580 53940
L37610 53980
L37630 54010
L37680 54030
L37770 54030
L37820 54010
L37840 53980
L37870 53940
" />
</g>
<g style="fill:#840000; fill-opacity:0.0; 
stroke:#840000; stroke-width:60; stroke-opacity:1; 
stroke-linecap:round; stroke-linejoin:round;">
<text x="35000" y="53900"
textLength="1010" font-size="660" lengthAdjust="spacingAndGlyphs"
text-anchor="middle" opacity="0">11</text>
<path d="M34900 53870
L34610 53870
" />
<path d="M34760 53870
L34760 53370
L34710 53440
L34660 53490
L34610 53510
" />
<path d="M35380 53870
L35090 53870
" />
<path d="M35230 53870
L35230 53370
L35190 53440
L35140 53490
L35090 53510
" />
<path d="M35500 55000
L34500 55000
" />
</g>
<g style="fill:#008484; fill-opacity:0.0; 
stroke:#008484; stroke-width:60; stroke-opacity:1; 
stroke-linecap:round; stroke-linejoin:round;">
<text x="35700" y="55250"
textLength="2770" font-size="660" lengthAdjust="spacingAndGlyphs"
text-anchor="start" opacity="0">GPIO10</text>
<path d="M36110 54750
L36060 54720
L35990 54720
L35920 54750
L35870 54790
L35840 54840
L35820 54940
L35820 55010
L35840 55100
L35870 55150
L35920 55200
L35990 55220
L36030 55220
L36110 55200
L36130 55170
L36130 55010
L36030 55010
" />
<path d="M36340 55220
L36340 54720
L36530 54720
L36580 54750
L36610 54770
L36630 54820
L36630 54890
L36610 54940
L36580 54960
L36530 54980
L36340 54980
" />
<path d="M36840 55220
L36840 54720
" />
<path d="M37180 54720
L37270 54720
L37320 54750
L37370 54790
L37390 54890
L37390 55050
L37370 55150
L37320 55200
L37270 55220
L37180 55220
L37130 55200
L37080 55150
L37060 55050
L37060 54890
L37080 54790
L37130 54750
L37180 54720
" />
<path d="M37870 55220
L37580 55220
" />
<path d="M37730 55220
L37730 54720
L37680 54790
L37630 54840
L37580 54860
" />
<path d="M38180 54720
L38230 54720
L38270 54750
L38300 54770
L38320 54820
L38340 54910
L38340 55030
L38320 55130
L38300 55170
L38270 55200
L38230 55220
L38180 55220
L38130 55200
L38110 55170
L38080 55130
L38060 55030
L38060 54910
L38080 54820
L38110 54770
L38130 54750
L38180 54720
" />
</g>
<g style="fill:#840000; fill-opacity:0.0; 
stroke:#840000; stroke-width:60; stroke-opacity:1; 
stroke-linecap:round; stroke-linejoin:round;">
<text x="35000" y="54900"
textLength="1010" font-size="660" lengthAdjust="spacingAndGlyphs"
text-anchor="middle" opacity="0">12</text>
<path d="M34900 54870
L34610 54870
" />
<path d="M34760 54870
L34760 54370
L34710 54440
L34660 54490
L34610 54510
" />
<path d="M35090 54420
L35110 54400
L35160 54370
L35280 54370
L35330 54400
L35350 54420
L35380 54470
L35380 54510
L35350 54590
L35070 54870
L35380 54870
" />
<path d="M35500 56000
L34500 56000
" />
</g>
<g style="fill:#008484; fill-opacity:0.0; 
stroke:#008484; stroke-width:60; stroke-opacity:1; 
stroke-linecap:round; stroke-linejoin:round;">
<text x="35700" y="56250"
textLength="1870" font-size="660" lengthAdjust="spacingAndGlyphs"
text-anchor="start" opacity="0">MOSI</text>
<path d="M35840 56220
L35840 55720
L36010 56080
L36180 55720
L36180 56220
" />
<path d="M36510 55720
L36610 55720
L36650 55750
L36700 55790
L36730 55890
L36730 56050
L36700 56150
L36650 56200
L36610 56220
L36510 56220
L36460 56200
L36420 56150
L36390 56050
L36390 55890
L36420 55790
L36460 55750
L36510 55720
" />
<path d="M36920 56200
L36990 56220
L37110 56220
L37150 56200
L37180 56170
L37200 56130
L37200 56080
L37180 56030
L37150 56010
L37110 55980
L37010 55960
L36960 55940
L36940 55910
L36920 55860
L36920 55820
L36940 55770
L36960 55750
L37010 55720
L37130 55720
L37200 55750
" />
<path d="M37420 56220
L37420 55720
" />
</g>
<g style="fill:#840000; fill-opacity:0.0; 
stroke:#840000; stroke-width:60; stroke-opacity:1; 
stroke-linecap:round; stroke-linejoin:round;">
<text x="35000" y="55900"
textLength="1010" font-size="660" lengthAdjust="spacingAndGlyphs"
text-anchor="middle" opacity="0">13</text>
<path d="M34900 55870
L34610 55870
" />
<path d="M34760 55870
L34760 55370
L34710 55440
L34660 55490
L34610 55510
" />
<path d="M35070 55370
L35380 55370
L35210 55560
L35280 55560
L35330 55590
L35350 55610
L35380 55660
L35380 55780
L35350 55820
L35330 55850
L35280 55870
L35140 55870
L35090 55850
L35070 55820
" />
<path d="M35500 57000
L34500 57000
" />
</g>
<g style="fill:#008484; fill-opacity:0.0; 
stroke:#008484; stroke-width:60; stroke-opacity:1; 
stroke-linecap:round; stroke-linejoin:round;">
<text x="35700" y="57250"
textLength="1940" font-size="660" lengthAdjust="spacingAndGlyphs"
text-anchor="start" opacity="0">SCLK</text>
<path d="M35820 57200
L35890 57220
L36010 57220
L36060 57200
L36080 57170
L36110 57130
L36110 57080
L36080 57030
L36060 57010
L36010 56980
L35920 56960
L35870 56940
L35840 56910
L35820 56860
L35820 56820
L35840 56770
L35870 56750
L35920 56720
L36030 56720
L36110 56750
" />
<path d="M36610 57170
L36580 57200
L36510 57220
L36460 57220
L36390 57200
L36340 57150
L36320 57100
L36300 57010
L36300 56940
L36320 56840
L36340 56790
L36390 56750
L36460 56720
L36510 56720
L36580 56750
L36610 56770
" />
<path d="M37060 57220
L36820 57220
L36820 56720
" />
<path d="M37230 57220
L37230 56720
" />
<path d="M37510 57220
L37300 56940
" />
<path d="M37510 56720
L37230 57010
" />
</g>
<g style="fill:#840000; fill-opacity:0.0; 
stroke:#840000; stroke-width:60; stroke-opacity:1; 
stroke-linecap:round; stroke-linejoin:round;">
<text x="35000" y="56900"
textLength="1010" font-size="660" lengthAdjust="spacingAndGlyphs"
text-anchor="middle" opacity="0">14</text>
<path d="M34900 56870
L34610 56870
" />
<path d="M34760 56870
L34760 56370
L34710 56440
L34660 56490
L34610 56510
" />
<path d="M35330 56540
L35330 56870
" />
<path d="M35210 56350
L35090 56700
L35400 56700
" />
<path d="M40500 58000
L40500 59000
" />
</g>
<g style="fill:#008484; fill-opacity:0.0; 
stroke:#008484; stroke-width:60; stroke-opacity:1; 
stroke-linecap:round; stroke-linejoin:round;">
<g transform="rotate(-90 40500 57800)">
<text x="40500" y="58050"
textLength="1580" font-size="660" lengthAdjust="spacingAndGlyphs"
text-anchor="start" opacity="0">GND</text>
</g>
<path d="M40250 57380
L40220 57430
L40220 57500
L40250 57570
L40290 57620
L40340 57650
L40440 57670
L40510 57670
L40600 57650
L40650 57620
L40700 57570
L40720 57500
L40720 57460
L40700 57380
L40670 57360
L40510 57360
L40510 57460
" />
<path d="M40720 57150
L40220 57150
L40720 56860
L40220 56860
" />
<path d="M40720 56620
L40220 56620
L40220 56500
L40250 56430
L40290 56380
L40340 56360
L40440 56340
L40510 56340
L40600 56360
L40650 56380
L40700 56430
L40720 56500
L40720 56620
" />
</g>
<g style="fill:#840000; fill-opacity:0.0; 
stroke:#840000; stroke-width:60; stroke-opacity:1; 
stroke-linecap:round; stroke-linejoin:round;">
<g transform="rotate(-90 40400 58500)">
<text x="40400" y="58500"
textLength="1010" font-size="660" lengthAdjust="spacingAndGlyphs"
text-anchor="middle" opacity="0">15</text>
</g>
<path d="M40370 58590
L40370 58880
" />
<path d="M40370 58730
L39870 58730
L39940 58780
L39990 58830
L40010 58880
" />
<path d="M39870 58140
L39870 58380
L40110 58400
L40090 58380
L40060 58330
L40060 58210
L40090 58160
L40110 58140
L40160 58110
L40280 58110
L40320 58140
L40350 58160
L40370 58210
L40370 58330
L40350 58380
L40320 58400
" />
<path d="M45500 55000
L46500 55000
" />
</g>
<g style="fill:#008484; fill-opacity:0.0; 
stroke:#008484; stroke-width:60; stroke-opacity:1; 
stroke-linecap:round; stroke-linejoin:round;">
<text x="45300" y="55250"
textLength="2770" font-size="660" lengthAdjust="spacingAndGlyphs"
text-anchor="end" opacity="0">GPIO15</text>
<path d="M42930 54750
L42880 54720
L42810 54720
L42740 54750
L42690 54790
L42670 54840
L42650 54940
L42650 55010
L42670 55100
L42690 55150
L42740 55200
L42810 55220
L42860 55220
L42930 55200
L42960 55170
L42960 55010
L42860 55010
" />
<path d="M43170 55220
L43170 54720
L43360 54720
L43410 54750
L43430 54770
L43460 54820
L43460 54890
L43430 54940
L43410 54960
L43360 54980
L43170 54980
" />
<path d="M43670 55220
L43670 54720
" />
<path d="M44000 54720
L44100 54720
L44150 54750
L44190 54790
L44220 54890
L44220 55050
L44190 55150
L44150 55200
L44100 55220
L44000 55220
L43960 55200
L43910 55150
L43880 55050
L43880 54890
L43910 54790
L43960 54750
L44000 54720
" />
<path d="M44690 55220
L44410 55220
" />
<path d="M44550 55220
L44550 54720
L44500 54790
L44460 54840
L44410 54860
" />
<path d="M45150 54720
L44910 54720
L44880 54960
L44910 54940
L44960 54910
L45070 54910
L45120 54940
L45150 54960
L45170 55010
L45170 55130
L45150 55170
L45120 55200
L45070 55220
L44960 55220
L44910 55200
L44880 55170
" />
</g>
<g style="fill:#840000; fill-opacity:0.0; 
stroke:#840000; stroke-width:60; stroke-opacity:1; 
stroke-linecap:round; stroke-linejoin:round;">
<text x="46000" y="54900"
textLength="1010" font-size="660" lengthAdjust="spacingAndGlyphs"
text-anchor="middle" opacity="0">16</text>
<path d="M45900 54870
L45610 54870
" />
<path d="M45760 54870
L45760 54370
L45710 54440
L45660 54490
L45610 54510
" />
<path d="M46330 54370
L46230 54370
L46190 54400
L46160 54420
L46110 54490
L46090 54590
L46090 54780
L46110 54820
L46140 54850
L46190 54870
L46280 54870
L46330 54850
L46350 54820
L46380 54780
L46380 54660
L46350 54610
L46330 54590
L46280 54560
L46190 54560
L46140 54590
L46110 54610
L46090 54660
" />
<path d="M45500 48000
L46500 48000
" />
</g>
<g style="fill:#008484; fill-opacity:0.0; 
stroke:#008484; stroke-width:60; stroke-opacity:1; 
stroke-linecap:round; stroke-linejoin:round;">
<text x="45300" y="48250"
textLength="2300" font-size="660" lengthAdjust="spacingAndGlyphs"
text-anchor="end" opacity="0">GPIO2</text>
<path d="M43410 47750
L43360 47720
L43290 47720
L43220 47750
L43170 47790
L43150 47840
L43120 47940
L43120 48010
L43150 48100
L43170 48150
L43220 48200
L43290 48220
L43340 48220
L43410 48200
L43430 48170
L43430 48010
L43340 48010
" />
<path d="M43650 48220
L43650 47720
L43840 47720
L43880 47750
L43910 47770
L43930 47820
L43930 47890
L43910 47940
L43880 47960
L43840 47980
L43650 47980
" />
<path d="M44150 48220
L44150 47720
" />
<path d="M44480 47720
L44570 47720
L44620 47750
L44670 47790
L44690 47890
L44690 48050
L44670 48150
L44620 48200
L44570 48220
L44480 48220
L44430 48200
L44380 48150
L44360 48050
L44360 47890
L44380 47790
L44430 47750
L44480 47720
" />
<path d="M44880 47770
L44910 47750
L44960 47720
L45070 47720
L45120 47750
L45150 47770
L45170 47820
L45170 47860
L45150 47940
L44860 48220
L45170 48220
" />
</g>
<g style="fill:#840000; fill-opacity:0.0; 
stroke:#840000; stroke-width:60; stroke-opacity:1; 
stroke-linecap:round; stroke-linejoin:round;">
<text x="46000" y="47900"
textLength="1010" font-size="660" lengthAdjust="spacingAndGlyphs"
text-anchor="middle" opacity="0">17</text>
<path d="M45900 47870
L45610 47870
" />
<path d="M45760 47870
L45760 47370
L45710 47440
L45660 47490
L45610 47510
" />
<path d="M46070 47370
L46400 47370
L46190 47870
" />
<path d="M45500 46000
L46500 46000
" />
</g>
<g style="fill:#008484; fill-opacity:0.0; 
stroke:#008484; stroke-width:60; stroke-opacity:1; 
stroke-linecap:round; stroke-linejoin:round;">
<text x="45300" y="46250"
textLength="2300" font-size="660" lengthAdjust="spacingAndGlyphs"
text-anchor="end" opacity="0">GPIO0</text>
<path d="M43410 45750
L43360 45720
L43290 45720
L43220 45750
L43170 45790
L43150 45840
L43120 45940
L43120 46010
L43150 46100
L43170 46150
L43220 46200
L43290 46220
L43340 46220
L43410 46200
L43430 46170
L43430 46010
L43340 46010
" />
<path d="M43650 46220
L43650 45720
L43840 45720
L43880 45750
L43910 45770
L43930 45820
L43930 45890
L43910 45940
L43880 45960
L43840 45980
L43650 45980
" />
<path d="M44150 46220
L44150 45720
" />
<path d="M44480 45720
L44570 45720
L44620 45750
L44670 45790
L44690 45890
L44690 46050
L44670 46150
L44620 46200
L44570 46220
L44480 46220
L44430 46200
L44380 46150
L44360 46050
L44360 45890
L44380 45790
L44430 45750
L44480 45720
" />
<path d="M45000 45720
L45050 45720
L45100 45750
L45120 45770
L45150 45820
L45170 45910
L45170 46030
L45150 46130
L45120 46170
L45100 46200
L45050 46220
L45000 46220
L44960 46200
L44930 46170
L44910 46130
L44880 46030
L44880 45910
L44910 45820
L44930 45770
L44960 45750
L45000 45720
" />
</g>
<g style="fill:#840000; fill-opacity:0.0; 
stroke:#840000; stroke-width:60; stroke-opacity:1; 
stroke-linecap:round; stroke-linejoin:round;">
<text x="46000" y="45900"
textLength="1010" font-size="660" lengthAdjust="spacingAndGlyphs"
text-anchor="middle" opacity="0">18</text>
<path d="M45900 45870
L45610 45870
" />
<path d="M45760 45870
L45760 45370
L45710 45440
L45660 45490
L45610 45510
" />
<path d="M46190 45590
L46140 45560
L46110 45540
L46090 45490
L46090 45470
L46110 45420
L46140 45400
L46190 45370
L46280 45370
L46330 45400
L46350 45420
L46380 45470
L46380 45490
L46350 45540
L46330 45560
L46280 45590
L46190 45590
L46140 45610
L46110 45630
L46090 45680
L46090 45780
L46110 45820
L46140 45850
L46190 45870
L46280 45870
L46330 45850
L46350 45820
L46380 45780
L46380 45680
L46350 45630
L46330 45610
L46280 45590
" />
<path d="M45500 50000
L46500 50000
" />
</g>
<g style="fill:#008484; fill-opacity:0.0; 
stroke:#008484; stroke-width:60; stroke-opacity:1; 
stroke-linecap:round; stroke-linejoin:round;">
<text x="45300" y="50250"
textLength="2300" font-size="660" lengthAdjust="spacingAndGlyphs"
text-anchor="end" opacity="0">GPIO4</text>
<path d="M43410 49750
L43360 49720
L43290 49720
L43220 49750
L43170 49790
L43150 49840
L43120 49940
L43120 50010
L43150 50100
L43170 50150
L43220 50200
L43290 50220
L43340 50220
L43410 50200
L43430 50170
L43430 50010
L43340 50010
" />
<path d="M43650 50220
L43650 49720
L43840 49720
L43880 49750
L43910 49770
L43930 49820
L43930 49890
L43910 49940
L43880 49960
L43840 49980
L43650 49980
" />
<path d="M44150 50220
L44150 49720
" />
<path d="M44480 49720
L44570 49720
L44620 49750
L44670 49790
L44690 49890
L44690 50050
L44670 50150
L44620 50200
L44570 50220
L44480 50220
L44430 50200
L44380 50150
L44360 50050
L44360 49890
L44380 49790
L44430 49750
L44480 49720
" />
<path d="M45120 49890
L45120 50220
" />
<path d="M45000 49700
L44880 50050
L45190 50050
" />
</g>
<g style="fill:#840000; fill-opacity:0.0; 
stroke:#840000; stroke-width:60; stroke-opacity:1; 
stroke-linecap:round; stroke-linejoin:round;">
<text x="46000" y="49900"
textLength="1010" font-size="660" lengthAdjust="spacingAndGlyphs"
text-anchor="middle" opacity="0">19</text>
<path d="M45900 49870
L45610 49870
" />
<path d="M45760 49870
L45760 49370
L45710 49440
L45660 49490
L45610 49510
" />
<path d="M46140 49870
L46230 49870
L46280 49850
L46300 49820
L46350 49750
L46380 49660
L46380 49470
L46350 49420
L46330 49400
L46280 49370
L46190 49370
L46140 49400
L46110 49420
L46090 49470
L46090 49590
L46110 49630
L46140 49660
L46190 49680
L46280 49680
L46330 49660
L46350 49630
L46380 49590
" />
<path d="M35500 50000
L34500 50000
" />
</g>
<g style="fill:#008484; fill-opacity:0.0; 
stroke:#008484; stroke-width:60; stroke-opacity:1; 
stroke-linecap:round; stroke-linejoin:round;">
<text x="35700" y="50250"
textLength="1490" font-size="660" lengthAdjust="spacingAndGlyphs"
text-anchor="start" opacity="0">ADC</text>
<path d="M35820 50080
L36060 50080
" />
<path d="M35770 50220
L35940 49720
L36110 50220
" />
<path d="M36270 50220
L36270 49720
L36390 49720
L36460 49750
L36510 49790
L36530 49840
L36560 49940
L36560 50010
L36530 50100
L36510 50150
L36460 50200
L36390 50220
L36270 50220
" />
<path d="M37060 50170
L37030 50200
L36960 50220
L36920 50220
L36840 50200
L36800 50150
L36770 50100
L36750 50010
L36750 49940
L36770 49840
L36800 49790
L36840 49750
L36920 49720
L36960 49720
L37030 49750
L37060 49770
" />
</g>
<g style="fill:#840000; fill-opacity:0.0; 
stroke:#840000; stroke-width:60; stroke-opacity:1; 
stroke-linecap:round; stroke-linejoin:round;">
<text x="35000" y="49900"
textLength="540" font-size="660" lengthAdjust="spacingAndGlyphs"
text-anchor="middle" opacity="0">2</text>
<path d="M34850 49420
L34880 49400
L34920 49370
L35040 49370
L35090 49400
L35110 49420
L35140 49470
L35140 49510
L35110 49590
L34830 49870
L35140 49870
" />
<path d="M45500 51000
L46500 51000
" />
</g>
<g style="fill:#008484; fill-opacity:0.0; 
stroke:#008484; stroke-width:60; stroke-opacity:1; 
stroke-linecap:round; stroke-linejoin:round;">
<text x="45300" y="51250"
textLength="2300" font-size="660" lengthAdjust="spacingAndGlyphs"
text-anchor="end" opacity="0">GPIO5</text>
<path d="M43410 50750
L43360 50720
L43290 50720
L43220 50750
L43170 50790
L43150 50840
L43120 50940
L43120 51010
L43150 51100
L43170 51150
L43220 51200
L43290 51220
L43340 51220
L43410 51200
L43430 51170
L43430 51010
L43340 51010
" />
<path d="M43650 51220
L43650 50720
L43840 50720
L43880 50750
L43910 50770
L43930 50820
L43930 50890
L43910 50940
L43880 50960
L43840 50980
L43650 50980
" />
<path d="M44150 51220
L44150 50720
" />
<path d="M44480 50720
L44570 50720
L44620 50750
L44670 50790
L44690 50890
L44690 51050
L44670 51150
L44620 51200
L44570 51220
L44480 51220
L44430 51200
L44380 51150
L44360 51050
L44360 50890
L44380 50790
L44430 50750
L44480 50720
" />
<path d="M45150 50720
L44910 50720
L44880 50960
L44910 50940
L44960 50910
L45070 50910
L45120 50940
L45150 50960
L45170 51010
L45170 51130
L45150 51170
L45120 51200
L45070 51220
L44960 51220
L44910 51200
L44880 51170
" />
</g>
<g style="fill:#840000; fill-opacity:0.0; 
stroke:#840000; stroke-width:60; stroke-opacity:1; 
stroke-linecap:round; stroke-linejoin:round;">
<text x="46000" y="50900"
textLength="1010" font-size="660" lengthAdjust="spacingAndGlyphs"
text-anchor="middle" opacity="0">20</text>
<path d="M45610 50420
L45640 50400
L45690 50370
L45800 50370
L45850 50400
L45880 50420
L45900 50470
L45900 50510
L45880 50590
L45590 50870
L45900 50870
" />
<path d="M46210 50370
L46260 50370
L46300 50400
L46330 50420
L46350 50470
L46380 50560
L46380 50680
L46350 50780
L46330 50820
L46300 50850
L46260 50870
L46210 50870
L46160 50850
L46140 50820
L46110 50780
L46090 50680
L46090 50560
L46110 50470
L46140 50420
L46160 50400
L46210 50370
" />
<path d="M45500 49000
L46500 49000
" />
</g>
<g style="fill:#008484; fill-opacity:0.0; 
stroke:#008484; stroke-width:60; stroke-opacity:1; 
stroke-linecap:round; stroke-linejoin:round;">
<text x="45300" y="49250"
textLength="4300" font-size="660" lengthAdjust="spacingAndGlyphs"
text-anchor="end" opacity="0">GPIO3/RXD</text>
<path d="M41410 48750
L41360 48720
L41290 48720
L41220 48750
L41170 48790
L41150 48840
L41120 48940
L41120 49010
L41150 49100
L41170 49150
L41220 49200
L41290 49220
L41340 49220
L41410 49200
L41430 49170
L41430 49010
L41340 49010
" />
<path d="M41650 49220
L41650 48720
L41840 48720
L41880 48750
L41910 48770
L41930 48820
L41930 48890
L41910 48940
L41880 48960
L41840 48980
L41650 48980
" />
<path d="M42150 49220
L42150 48720
" />
<path d="M42480 48720
L42570 48720
L42620 48750
L42670 48790
L42690 48890
L42690 49050
L42670 49150
L42620 49200
L42570 49220
L42480 49220
L42430 49200
L42380 49150
L42360 49050
L42360 48890
L42380 48790
L42430 48750
L42480 48720
" />
<path d="M42860 48720
L43170 48720
L43000 48910
L43070 48910
L43120 48940
L43150 48960
L43170 49010
L43170 49130
L43150 49170
L43120 49200
L43070 49220
L42930 49220
L42880 49200
L42860 49170
" />
<path d="M43740 48700
L43310 49340
" />
<path d="M44190 49220
L44030 48980
" />
<path d="M43910 49220
L43910 48720
L44100 48720
L44150 48750
L44170 48770
L44190 48820
L44190 48890
L44170 48940
L44150 48960
L44100 48980
L43910 48980
" />
<path d="M44360 48720
L44690 49220
" />
<path d="M44690 48720
L44360 49220
" />
<path d="M44880 49220
L44880 48720
L45000 48720
L45070 48750
L45120 48790
L45150 48840
L45170 48940
L45170 49010
L45150 49100
L45120 49150
L45070 49200
L45000 49220
L44880 49220
" />
</g>
<g style="fill:#840000; fill-opacity:0.0; 
stroke:#840000; stroke-width:60; stroke-opacity:1; 
stroke-linecap:round; stroke-linejoin:round;">
<text x="46000" y="48900"
textLength="1010" font-size="660" lengthAdjust="spacingAndGlyphs"
text-anchor="middle" opacity="0">21</text>
<path d="M45610 48420
L45640 48400
L45690 48370
L45800 48370
L45850 48400
L45880 48420
L45900 48470
L45900 48510
L45880 48590
L45590 48870
L45900 48870
" />
<path d="M46380 48870
L46090 48870
" />
<path d="M46230 48870
L46230 48370
L46190 48440
L46140 48490
L46090 48510
" />
<path d="M45500 47000
L46500 47000
" />
</g>
<g style="fill:#008484; fill-opacity:0.0; 
stroke:#008484; stroke-width:60; stroke-opacity:1; 
stroke-linecap:round; stroke-linejoin:round;">
<text x="45300" y="47250"
textLength="4180" font-size="660" lengthAdjust="spacingAndGlyphs"
text-anchor="end" opacity="0">GPIO1/TXD</text>
<path d="M41530 46750
L41480 46720
L41410 46720
L41340 46750
L41290 46790
L41270 46840
L41240 46940
L41240 47010
L41270 47100
L41290 47150
L41340 47200
L41410 47220
L41460 47220
L41530 47200
L41550 47170
L41550 47010
L41460 47010
" />
<path d="M41770 47220
L41770 46720
L41960 46720
L42000 46750
L42030 46770
L42050 46820
L42050 46890
L42030 46940
L42000 46960
L41960 46980
L41770 46980
" />
<path d="M42270 47220
L42270 46720
" />
<path d="M42600 46720
L42690 46720
L42740 46750
L42790 46790
L42810 46890
L42810 47050
L42790 47150
L42740 47200
L42690 47220
L42600 47220
L42550 47200
L42500 47150
L42480 47050
L42480 46890
L42500 46790
L42550 46750
L42600 46720
" />
<path d="M43290 47220
L43000 47220
" />
<path d="M43150 47220
L43150 46720
L43100 46790
L43050 46840
L43000 46860
" />
<path d="M43860 46700
L43430 47340
" />
<path d="M43960 46720
L44240 46720
" />
<path d="M44100 47220
L44100 46720
" />
<path d="M44360 46720
L44690 47220
" />
<path d="M44690 46720
L44360 47220
" />
<path d="M44880 47220
L44880 46720
L45000 46720
L45070 46750
L45120 46790
L45150 46840
L45170 46940
L45170 47010
L45150 47100
L45120 47150
L45070 47200
L45000 47220
L44880 47220
" />
</g>
<g style="fill:#840000; fill-opacity:0.0; 
stroke:#840000; stroke-width:60; stroke-opacity:1; 
stroke-linecap:round; stroke-linejoin:round;">
<text x="46000" y="46900"
textLength="1010" font-size="660" lengthAdjust="spacingAndGlyphs"
text-anchor="middle" opacity="0">22</text>
<path d="M45610 46420
L45640 46400
L45690 46370
L45800 46370
L45850 46400
L45880 46420
L45900 46470
L45900 46510
L45880 46590
L45590 46870
L45900 46870
" />
<path d="M46090 46420
L46110 46400
L46160 46370
L46280 46370
L46330 46400
L46350 46420
L46380 46470
L46380 46510
L46350 46590
L46070 46870
L46380 46870
" />
<path d="M35500 48000
L34500 48000
" />
</g>
<g style="fill:#008484; fill-opacity:0.0; 
stroke:#008484; stroke-width:60; stroke-opacity:1; 
stroke-linecap:round; stroke-linejoin:round;">
<text x="35700" y="48250"
textLength="1040" font-size="660" lengthAdjust="spacingAndGlyphs"
text-anchor="start" opacity="0">EN</text>
<path d="M35840 47960
L36010 47960
" />
<path d="M36080 48220
L35840 48220
L35840 47720
L36080 47720
" />
<path d="M36300 48220
L36300 47720
L36580 48220
L36580 47720
" />
</g>
<g style="fill:#840000; fill-opacity:0.0; 
stroke:#840000; stroke-width:60; stroke-opacity:1; 
stroke-linecap:round; stroke-linejoin:round;">
<text x="35000" y="47900"
textLength="540" font-size="660" lengthAdjust="spacingAndGlyphs"
text-anchor="middle" opacity="0">3</text>
<path d="M34830 47370
L35140 47370
L34970 47560
L35040 47560
L35090 47590
L35110 47610
L35140 47660
L35140 47780
L35110 47820
L35090 47850
L35040 47870
L34900 47870
L34850 47850
L34830 47820
" />
<path d="M45500 56000
L46500 56000
" />
</g>
<g style="fill:#008484; fill-opacity:0.0; 
stroke:#008484; stroke-width:60; stroke-opacity:1; 
stroke-linecap:round; stroke-linejoin:round;">
<text x="45300" y="56250"
textLength="2770" font-size="660" lengthAdjust="spacingAndGlyphs"
text-anchor="end" opacity="0">GPIO16</text>
<path d="M42930 55750
L42880 55720
L42810 55720
L42740 55750
L42690 55790
L42670 55840
L42650 55940
L42650 56010
L42670 56100
L42690 56150
L42740 56200
L42810 56220
L42860 56220
L42930 56200
L42960 56170
L42960 56010
L42860 56010
" />
<path d="M43170 56220
L43170 55720
L43360 55720
L43410 55750
L43430 55770
L43460 55820
L43460 55890
L43430 55940
L43410 55960
L43360 55980
L43170 55980
" />
<path d="M43670 56220
L43670 55720
" />
<path d="M44000 55720
L44100 55720
L44150 55750
L44190 55790
L44220 55890
L44220 56050
L44190 56150
L44150 56200
L44100 56220
L44000 56220
L43960 56200
L43910 56150
L43880 56050
L43880 55890
L43910 55790
L43960 55750
L44000 55720
" />
<path d="M44690 56220
L44410 56220
" />
<path d="M44550 56220
L44550 55720
L44500 55790
L44460 55840
L44410 55860
" />
<path d="M45120 55720
L45030 55720
L44980 55750
L44960 55770
L44910 55840
L44880 55940
L44880 56130
L44910 56170
L44930 56200
L44980 56220
L45070 56220
L45120 56200
L45150 56170
L45170 56130
L45170 56010
L45150 55960
L45120 55940
L45070 55910
L44980 55910
L44930 55940
L44910 55960
L44880 56010
" />
</g>
<g style="fill:#840000; fill-opacity:0.0; 
stroke:#840000; stroke-width:60; stroke-opacity:1; 
stroke-linecap:round; stroke-linejoin:round;">
<text x="46000" y="55900"
textLength="540" font-size="660" lengthAdjust="spacingAndGlyphs"
text-anchor="middle" opacity="0">4</text>
<path d="M46090 55540
L46090 55870
" />
<path d="M45970 55350
L45850 55700
L46160 55700
" />
<path d="M45500 54000
L46500 54000
" />
</g>
<g style="fill:#008484; fill-opacity:0.0; 
stroke:#008484; stroke-width:60; stroke-opacity:1; 
stroke-linecap:round; stroke-linejoin:round;">
<text x="45300" y="54250"
textLength="2770" font-size="660" lengthAdjust="spacingAndGlyphs"
text-anchor="end" opacity="0">GPIO14</text>
<path d="M42930 53750
L42880 53720
L42810 53720
L42740 53750
L42690 53790
L42670 53840
L42650 53940
L42650 54010
L42670 54100
L42690 54150
L42740 54200
L42810 54220
L42860 54220
L42930 54200
L42960 54170
L42960 54010
L42860 54010
" />
<path d="M43170 54220
L43170 53720
L43360 53720
L43410 53750
L43430 53770
L43460 53820
L43460 53890
L43430 53940
L43410 53960
L43360 53980
L43170 53980
" />
<path d="M43670 54220
L43670 53720
" />
<path d="M44000 53720
L44100 53720
L44150 53750
L44190 53790
L44220 53890
L44220 54050
L44190 54150
L44150 54200
L44100 54220
L44000 54220
L43960 54200
L43910 54150
L43880 54050
L43880 53890
L43910 53790
L43960 53750
L44000 53720
" />
<path d="M44690 54220
L44410 54220
" />
<path d="M44550 54220
L44550 53720
L44500 53790
L44460 53840
L44410 53860
" />
<path d="M45120 53890
L45120 54220
" />
<path d="M45000 53700
L44880 54050
L45190 54050
" />
</g>
<g style="fill:#840000; fill-opacity:0.0; 
stroke:#840000; stroke-width:60; stroke-opacity:1; 
stroke-linecap:round; stroke-linejoin:round;">
<text x="46000" y="53900"
textLength="540" font-size="660" lengthAdjust="spacingAndGlyphs"
text-anchor="middle" opacity="0">5</text>
<path d="M46110 53370
L45880 53370
L45850 53610
L45880 53590
L45920 53560
L46040 53560
L46090 53590
L46110 53610
L46140 53660
L46140 53780
L46110 53820
L46090 53850
L46040 53870
L45920 53870
L45880 53850
L45850 53820
" />
<path d="M45500 52000
L46500 52000
" />
</g>
<g style="fill:#008484; fill-opacity:0.0; 
stroke:#008484; stroke-width:60; stroke-opacity:1; 
stroke-linecap:round; stroke-linejoin:round;">
<text x="45300" y="52250"
textLength="2770" font-size="660" lengthAdjust="spacingAndGlyphs"
text-anchor="end" opacity="0">GPIO12</text>
<path d="M42930 51750
L42880 51720
L42810 51720
L42740 51750
L42690 51790
L42670 51840
L42650 51940
L42650 52010
L42670 52100
L42690 52150
L42740 52200
L42810 52220
L42860 52220
L42930 52200
L42960 52170
L42960 52010
L42860 52010
" />
<path d="M43170 52220
L43170 51720
L43360 51720
L43410 51750
L43430 51770
L43460 51820
L43460 51890
L43430 51940
L43410 51960
L43360 51980
L43170 51980
" />
<path d="M43670 52220
L43670 51720
" />
<path d="M44000 51720
L44100 51720
L44150 51750
L44190 51790
L44220 51890
L44220 52050
L44190 52150
L44150 52200
L44100 52220
L44000 52220
L43960 52200
L43910 52150
L43880 52050
L43880 51890
L43910 51790
L43960 51750
L44000 51720
" />
<path d="M44690 52220
L44410 52220
" />
<path d="M44550 52220
L44550 51720
L44500 51790
L44460 51840
L44410 51860
" />
<path d="M44880 51770
L44910 51750
L44960 51720
L45070 51720
L45120 51750
L45150 51770
L45170 51820
L45170 51860
L45150 51940
L44860 52220
L45170 52220
" />
</g>
<g style="fill:#840000; fill-opacity:0.0; 
stroke:#840000; stroke-width:60; stroke-opacity:1; 
stroke-linecap:round; stroke-linejoin:round;">
<text x="46000" y="51900"
textLength="540" font-size="660" lengthAdjust="spacingAndGlyphs"
text-anchor="middle" opacity="0">6</text>
<path d="M46090 51370
L46000 51370
L45950 51400
L45920 51420
L45880 51490
L45850 51590
L45850 51780
L45880 51820
L45900 51850
L45950 51870
L46040 51870
L46090 51850
L46110 51820
L46140 51780
L46140 51660
L46110 51610
L46090 51590
L46040 51560
L45950 51560
L45900 51590
L45880 51610
L45850 51660
" />
<path d="M45500 53000
L46500 53000
" />
</g>
<g style="fill:#008484; fill-opacity:0.0; 
stroke:#008484; stroke-width:60; stroke-opacity:1; 
stroke-linecap:round; stroke-linejoin:round;">
<text x="45300" y="53250"
textLength="2770" font-size="660" lengthAdjust="spacingAndGlyphs"
text-anchor="end" opacity="0">GPIO13</text>
<path d="M42930 52750
L42880 52720
L42810 52720
L42740 52750
L42690 52790
L42670 52840
L42650 52940
L42650 53010
L42670 53100
L42690 53150
L42740 53200
L42810 53220
L42860 53220
L42930 53200
L42960 53170
L42960 53010
L42860 53010
" />
<path d="M43170 53220
L43170 52720
L43360 52720
L43410 52750
L43430 52770
L43460 52820
L43460 52890
L43430 52940
L43410 52960
L43360 52980
L43170 52980
" />
<path d="M43670 53220
L43670 52720
" />
<path d="M44000 52720
L44100 52720
L44150 52750
L44190 52790
L44220 52890
L44220 53050
L44190 53150
L44150 53200
L44100 53220
L44000 53220
L43960 53200
L43910 53150
L43880 53050
L43880 52890
L43910 52790
L43960 52750
L44000 52720
" />
<path d="M44690 53220
L44410 53220
" />
<path d="M44550 53220
L44550 52720
L44500 52790
L44460 52840
L44410 52860
" />
<path d="M44860 52720
L45170 52720
L45000 52910
L45070 52910
L45120 52940
L45150 52960
L45170 53010
L45170 53130
L45150 53170
L45120 53200
L45070 53220
L44930 53220
L44880 53200
L44860 53170
" />
</g>
<g style="fill:#840000; fill-opacity:0.0; 
stroke:#840000; stroke-width:60; stroke-opacity:1; 
stroke-linecap:round; stroke-linejoin:round;">
<text x="46000" y="52900"
textLength="540" font-size="660" lengthAdjust="spacingAndGlyphs"
text-anchor="middle" opacity="0">7</text>
<path d="M45830 52370
L46160 52370
L45950 52870
" />
<path d="M40500 45000
L40500 44000
" />
</g>
<g style="fill:#008484; fill-opacity:0.0; 
stroke:#008484; stroke-width:60; stroke-opacity:1; 
stroke-linecap:round; stroke-linejoin:round;">
<g transform="rotate(-90 40500 45200)">
<text x="40500" y="45450"
textLength="1490" font-size="660" lengthAdjust="spacingAndGlyphs"
text-anchor="end" opacity="0">VCC</text>
</g>
<path d="M40220 46610
L40720 46440
L40220 46270
" />
<path d="M40670 45820
L40700 45840
L40720 45920
L40720 45960
L40700 46030
L40650 46080
L40600 46110
L40510 46130
L40440 46130
L40340 46110
L40290 46080
L40250 46030
L40220 45960
L40220 45920
L40250 45840
L40270 45820
" />
<path d="M40670 45320
L40700 45340
L40720 45420
L40720 45460
L40700 45530
L40650 45580
L40600 45610
L40510 45630
L40440 45630
L40340 45610
L40290 45580
L40250 45530
L40220 45460
L40220 45420
L40250 45340
L40270 45320
" />
</g>
<g style="fill:#840000; fill-opacity:0.0; 
stroke:#840000; stroke-width:60; stroke-opacity:1; 
stroke-linecap:round; stroke-linejoin:round;">
<g transform="rotate(-90 40400 44500)">
<text x="40400" y="44500"
textLength="540" font-size="660" lengthAdjust="spacingAndGlyphs"
text-anchor="middle" opacity="0">8</text>
</g>
<path d="M40090 44540
L40060 44590
L40040 44610
L39990 44640
L39970 44640
L39920 44610
L39900 44590
L39870 44540
L39870 44450
L39900 44400
L39920 44380
L39970 44350
L39990 44350
L40040 44380
L40060 44400
L40090 44450
L40090 44540
L40110 44590
L40130 44610
L40180 44640
L40280 44640
L40320 44610
L40350 44590
L40370 44540
L40370 44450
L40350 44400
L40320 44380
L40280 44350
L40180 44350
L40130 44380
L40110 44400
L40090 44450
" />
<path d="M35500 52000
L34500 52000
" />
</g>
<g style="fill:#008484; fill-opacity:0.0; 
stroke:#008484; stroke-width:60; stroke-opacity:1; 
stroke-linecap:round; stroke-linejoin:round;">
<text x="35700" y="52250"
textLength="1510" font-size="660" lengthAdjust="spacingAndGlyphs"
text-anchor="start" opacity="0">CS0</text>
<path d="M36130 52170
L36110 52200
L36030 52220
L35990 52220
L35920 52200
L35870 52150
L35840 52100
L35820 52010
L35820 51940
L35840 51840
L35870 51790
L35920 51750
L35990 51720
L36030 51720
L36110 51750
L36130 51770
" />
<path d="M36320 52200
L36390 52220
L36510 52220
L36560 52200
L36580 52170
L36610 52130
L36610 52080
L36580 52030
L36560 52010
L36510 51980
L36420 51960
L36370 51940
L36340 51910
L36320 51860
L36320 51820
L36340 51770
L36370 51750
L36420 51720
L36530 51720
L36610 51750
" />
<path d="M36920 51720
L36960 51720
L37010 51750
L37030 51770
L37060 51820
L37080 51910
L37080 52030
L37060 52130
L37030 52170
L37010 52200
L36960 52220
L36920 52220
L36870 52200
L36840 52170
L36820 52130
L36800 52030
L36800 51910
L36820 51820
L36840 51770
L36870 51750
L36920 51720
" />
</g>
<g style="fill:#840000; fill-opacity:0.0; 
stroke:#840000; stroke-width:60; stroke-opacity:1; 
stroke-linecap:round; stroke-linejoin:round;">
<text x="35000" y="51900"
textLength="540" font-size="660" lengthAdjust="spacingAndGlyphs"
text-anchor="middle" opacity="0">9</text>
<path d="M34900 51870
L35000 51870
L35040 51850
L35070 51820
L35110 51750
L35140 51660
L35140 51470
L35110 51420
L35090 51400
L35040 51370
L34950 51370
L34900 51400
L34880 51420
L34850 51470
L34850 51590
L34880 51630
L34900 51660
L34950 51680
L35040 51680
L35090 51660
L35110 51630
L35140 51590
" />
</g>
<g style="fill:#008484; fill-opacity:0.0; 
stroke:#008484; stroke-width:60; stroke-opacity:1; 
stroke-linecap:round; stroke-linejoin:round;">
<text x="40500" y="42460"
textLength="1060" font-size="660" lengthAdjust="spacingAndGlyphs"
text-anchor="middle" opacity="0">U1</text>
<path d="M40110 41930
L40110 42340
L40140 42380
L40160 42410
L40210 42430
L40300 42430
L40350 42410
L40380 42380
L40400 42340
L40400 41930
" />
<path d="M40900 42430
L40610 42430
" />
<path d="M40760 42430
L40760 41930
L40710 42000
L40660 42050
L40610 42070
" />
<text x="40500" y="43370"
textLength="3510" font-size="660" lengthAdjust="spacingAndGlyphs"
text-anchor="middle" opacity="0">ESP-12E</text>
<path d="M38890 43080
L39050 43080
" />
<path d="M39130 43340
L38890 43340
L38890 42840
L39130 42840
" />
<path d="M39320 43320
L39390 43340
L39510 43340
L39550 43320
L39580 43290
L39600 43250
L39600 43200
L39580 43150
L39550 43130
L39510 43100
L39410 43080
L39360 43060
L39340 43030
L39320 42980
L39320 42940
L39340 42890
L39360 42870
L39410 42840
L39530 42840
L39600 42870
" />
<path d="M39820 43340
L39820 42840
L40010 42840
L40050 42870
L40080 42890
L40100 42940
L40100 43010
L40080 43060
L40050 43080
L40010 43100
L39820 43100
" />
<path d="M40320 43150
L40700 43150
" />
<path d="M41200 43340
L40910 43340
" />
<path d="M41050 43340
L41050 42840
L41010 42910
L40960 42960
L40910 42980
" />
<path d="M41390 42890
L41410 42870
L41460 42840
L41580 42840
L41630 42870
L41650 42890
L41670 42940
L41670 42980
L41650 43060
L41360 43340
L41670 43340
" />
<path d="M41890 43080
L42050 43080
" />
<path d="M42130 43340
L41890 43340
L41890 42840
L42130 42840
" />
</g>
</g>
<g style="fill:#008484; fill-opacity:0.0; 
stroke:#008484; stroke-width:0; stroke-opacity:1; 
stroke-linecap:round; stroke-linejoin:round;">
<g >
</g>
<g style="fill:#840000; fill-opacity:0.0; 
stroke:#840000; stroke-width:0; stroke-opacity:1; 
stroke-linecap:round; stroke-linejoin:round;">
</g>
<g style="fill:#840000; fill-opacity:1.0; 
stroke:#840000; stroke-width:60; stroke-opacity:1; 
stroke-linecap:round; stroke-linejoin:round;">
<rect x="67100" y="52800" width="1800" height="100" rx="0" />
<rect x="67380" y="53030" width="1200" height="200" rx="0" />
</g>
<g style="fill:#840000; fill-opacity:0.0; 
stroke:#840000; stroke-width:60; stroke-opacity:1; 
stroke-linecap:round; stroke-linejoin:round;">
<path style="fill:#840000; fill-opacity:0.0; 
stroke:#840000; stroke-width:60; stroke-opacity:1; 
stroke-linecap:round; stroke-linejoin:round;fill:none"
d="M 68000,53200
68000,53500
" /> 
<path style="fill:#840000; fill-opacity:0.0; 
stroke:#840000; stroke-width:60; stroke-opacity:1; 
stroke-linecap:round; stroke-linejoin:round;fill:none"
d="M 68000,52800
68000,52500
" /> 
</g>
<g style="fill:#840000; fill-opacity:0.0; 
stroke:#840000; stroke-width:100; stroke-opacity:1; 
stroke-linecap:round; stroke-linejoin:round;">
<path style="fill:#840000; fill-opacity:0.0; 
stroke:#840000; stroke-width:100; stroke-opacity:1; 
stroke-linecap:round; stroke-linejoin:round;fill:none"
d="M 68200,52150
68600,52150
" /> 
<path style="fill:#840000; fill-opacity:0.0; 
stroke:#840000; stroke-width:100; stroke-opacity:1; 
stroke-linecap:round; stroke-linejoin:round;fill:none"
d="M 68400,51950
68400,52350
" /> 
</g>
<g style="fill:#840000; fill-opacity:0.0; 
stroke:#840000; stroke-width:60; stroke-opacity:1; 
stroke-linecap:round; stroke-linejoin:round;">
<path d="M68000 52500
L68000 51500
" />
<path d="M68000 53500
L68000 54500
" />
</g>
<g style="fill:#008484; fill-opacity:0.0; 
stroke:#008484; stroke-width:60; stroke-opacity:1; 
stroke-linecap:round; stroke-linejoin:round;">
<text x="69890" y="52810"
textLength="1420" font-size="660" lengthAdjust="spacingAndGlyphs"
text-anchor="middle" opacity="0">BT0</text>
<path d="M69490 52520
L69560 52540
L69590 52570
L69610 52610
L69610 52690
L69590 52730
L69560 52760
L69520 52780
L69330 52780
L69330 52280
L69490 52280
L69540 52310
L69560 52330
L69590 52380
L69590 52420
L69560 52470
L69540 52500
L69490 52520
L69330 52520
" />
<path d="M69750 52280
L70040 52280
" />
<path d="M69900 52780
L69900 52280
" />
<path d="M70300 52280
L70350 52280
L70400 52310
L70420 52330
L70440 52380
L70470 52470
L70470 52590
L70440 52690
L70420 52730
L70400 52760
L70350 52780
L70300 52780
L70250 52760
L70230 52730
L70210 52690
L70180 52590
L70180 52470
L70210 52380
L70230 52330
L70250 52310
L70300 52280
" />
<text x="69660" y="53720"
textLength="960" font-size="660" lengthAdjust="spacingAndGlyphs"
text-anchor="middle" opacity="0">9V</text>
<path d="M69350 53690
L69440 53690
L69490 53670
L69510 53640
L69560 53570
L69580 53480
L69580 53290
L69560 53240
L69540 53220
L69490 53190
L69390 53190
L69350 53220
L69320 53240
L69300 53290
L69300 53410
L69320 53450
L69350 53480
L69390 53500
L69490 53500
L69540 53480
L69560 53450
L69580 53410
" />
<path d="M69730 53190
L69890 53690
L70060 53190
" />
</g>
</g>
<g style="fill:#008484; fill-opacity:0.0; 
stroke:#008484; stroke-width:0; stroke-opacity:1; 
stroke-linecap:round; stroke-linejoin:round;">
<g >
</g>
<g style="fill:#840000; fill-opacity:0.0; 
stroke:#840000; stroke-width:0; stroke-opacity:1; 
stroke-linecap:round; stroke-linejoin:round;">
</g>
<g style="fill:#FFFFC2; fill-opacity:0.0; 
stroke:#FFFFC2; stroke-width:0; stroke-opacity:1; 
stroke-linecap:round; stroke-linejoin:round;">
</g>
<g style="fill:#FFFFC2; fill-opacity:0.6; 
stroke:#FFFFC2; stroke-width:0; stroke-opacity:1; 
stroke-linecap:round; stroke-linejoin:round;">
<rect x="76000" y="50000" width="12500" height="6000" rx="0" />
</g>
<g style="fill:#840000; fill-opacity:0.6; 
stroke:#840000; stroke-width:0; stroke-opacity:1; 
stroke-linecap:round; stroke-linejoin:round;">
</g>
<g style="fill:#840000; fill-opacity:0.0; 
stroke:#840000; stroke-width:60; stroke-opacity:1; 
stroke-linecap:round; stroke-linejoin:round;">
<rect x="76000" y="50000" width="12500" height="6000" rx="0" />
<rect x="76000" y="50000" width="12500" height="6000" rx="0" />
<path d="M76000 51000
L75000 51000
" />
</g>
<g style="fill:#008484; fill-opacity:0.0; 
stroke:#008484; stroke-width:60; stroke-opacity:1; 
stroke-linecap:round; stroke-linejoin:round;">
<text x="76400" y="51250"
textLength="1440" font-size="660" lengthAdjust="spacingAndGlyphs"
text-anchor="start" opacity="0">IN+</text>
<path d="M76540 51220
L76540 50720
" />
<path d="M76780 51220
L76780 50720
L77070 51220
L77070 50720
" />
<path d="M77310 51030
L77690 51030
" />
<path d="M77500 51220
L77500 50840
" />
</g>
<g style="fill:#840000; fill-opacity:0.0; 
stroke:#840000; stroke-width:60; stroke-opacity:1; 
stroke-linecap:round; stroke-linejoin:round;">
<text x="75500" y="50900"
textLength="60" font-size="660" lengthAdjust="spacingAndGlyphs"
text-anchor="middle" opacity="0">~</text>
<path d="M76000 55000
L75000 55000
" />
</g>
<g style="fill:#008484; fill-opacity:0.0; 
stroke:#008484; stroke-width:60; stroke-opacity:1; 
stroke-linecap:round; stroke-linejoin:round;">
<text x="76400" y="55250"
textLength="1440" font-size="660" lengthAdjust="spacingAndGlyphs"
text-anchor="start" opacity="0">IN-</text>
<path d="M76540 55220
L76540 54720
" />
<path d="M76780 55220
L76780 54720
L77070 55220
L77070 54720
" />
<path d="M77310 55030
L77690 55030
" />
</g>
<g style="fill:#840000; fill-opacity:0.0; 
stroke:#840000; stroke-width:60; stroke-opacity:1; 
stroke-linecap:round; stroke-linejoin:round;">
<text x="75500" y="54900"
textLength="60" font-size="660" lengthAdjust="spacingAndGlyphs"
text-anchor="middle" opacity="0">~</text>
<path d="M88500 51000
L89500 51000
" />
</g>
<g style="fill:#008484; fill-opacity:0.0; 
stroke:#008484; stroke-width:60; stroke-opacity:1; 
stroke-linecap:round; stroke-linejoin:round;">
<text x="88100" y="51250"
textLength="2110" font-size="660" lengthAdjust="spacingAndGlyphs"
text-anchor="end" opacity="0">OUT+</text>
<path d="M86230 50720
L86330 50720
L86370 50750
L86420 50790
L86450 50890
L86450 51050
L86420 51150
L86370 51200
L86330 51220
L86230 51220
L86180 51200
L86140 51150
L86110 51050
L86110 50890
L86140 50790
L86180 50750
L86230 50720
" />
<path d="M86660 50720
L86660 51130
L86680 51170
L86710 51200
L86760 51220
L86850 51220
L86900 51200
L86920 51170
L86950 51130
L86950 50720
" />
<path d="M87110 50720
L87400 50720
" />
<path d="M87260 51220
L87260 50720
" />
<path d="M87570 51030
L87950 51030
" />
<path d="M87760 51220
L87760 50840
" />
</g>
<g style="fill:#840000; fill-opacity:0.0; 
stroke:#840000; stroke-width:60; stroke-opacity:1; 
stroke-linecap:round; stroke-linejoin:round;">
<text x="89000" y="50900"
textLength="60" font-size="660" lengthAdjust="spacingAndGlyphs"
text-anchor="middle" opacity="0">~</text>
<path d="M88500 55000
L89500 55000
" />
</g>
<g style="fill:#008484; fill-opacity:0.0; 
stroke:#008484; stroke-width:60; stroke-opacity:1; 
stroke-linecap:round; stroke-linejoin:round;">
<text x="88100" y="55250"
textLength="2110" font-size="660" lengthAdjust="spacingAndGlyphs"
text-anchor="end" opacity="0">OUT-</text>
<path d="M86230 54720
L86330 54720
L86370 54750
L86420 54790
L86450 54890
L86450 55050
L86420 55150
L86370 55200
L86330 55220
L86230 55220
L86180 55200
L86140 55150
L86110 55050
L86110 54890
L86140 54790
L86180 54750
L86230 54720
" />
<path d="M86660 54720
L86660 55130
L86680 55170
L86710 55200
L86760 55220
L86850 55220
L86900 55200
L86920 55170
L86950 55130
L86950 54720
" />
<path d="M87110 54720
L87400 54720
" />
<path d="M87260 55220
L87260 54720
" />
<path d="M87570 55030
L87950 55030
" />
</g>
<g style="fill:#840000; fill-opacity:0.0; 
stroke:#840000; stroke-width:60; stroke-opacity:1; 
stroke-linecap:round; stroke-linejoin:round;">
<text x="89000" y="54900"
textLength="60" font-size="660" lengthAdjust="spacingAndGlyphs"
text-anchor="middle" opacity="0">~</text>
</g>
<g style="fill:#008484; fill-opacity:0.0; 
stroke:#008484; stroke-width:60; stroke-opacity:1; 
stroke-linecap:round; stroke-linejoin:round;">
<text x="82250" y="48620"
textLength="1060" font-size="660" lengthAdjust="spacingAndGlyphs"
text-anchor="middle" opacity="0">U2</text>
<path d="M81860 48090
L81860 48500
L81890 48540
L81910 48570
L81960 48590
L82050 48590
L82100 48570
L82130 48540
L82150 48500
L82150 48090
" />
<path d="M82360 48140
L82390 48120
L82440 48090
L82550 48090
L82600 48120
L82630 48140
L82650 48190
L82650 48230
L82630 48310
L82340 48590
L82650 48590
" />
<text x="82250" y="49530"
textLength="2940" font-size="660" lengthAdjust="spacingAndGlyphs"
text-anchor="middle" opacity="0">LM2596</text>
<path d="M81160 49500
L80920 49500
L80920 49000
" />
<path d="M81330 49500
L81330 49000
L81500 49360
L81660 49000
L81660 49500
" />
<path d="M81880 49050
L81900 49030
L81950 49000
L82070 49000
L82110 49030
L82140 49050
L82160 49100
L82160 49140
L82140 49220
L81850 49500
L82160 49500
" />
<path d="M82610 49000
L82380 49000
L82350 49240
L82380 49220
L82420 49190
L82540 49190
L82590 49220
L82610 49240
L82640 49290
L82640 49410
L82610 49450
L82590 49480
L82540 49500
L82420 49500
L82380 49480
L82350 49450
" />
<path d="M82880 49500
L82970 49500
L83020 49480
L83040 49450
L83090 49380
L83110 49290
L83110 49100
L83090 49050
L83070 49030
L83020 49000
L82920 49000
L82880 49030
L82850 49050
L82830 49100
L82830 49220
L82850 49260
L82880 49290
L82920 49310
L83020 49310
L83070 49290
L83090 49260
L83110 49220
" />
<path d="M83540 49000
L83450 49000
L83400 49030
L83380 49050
L83330 49120
L83300 49220
L83300 49410
L83330 49450
L83350 49480
L83400 49500
L83500 49500
L83540 49480
L83570 49450
L83590 49410
L83590 49290
L83570 49240
L83540 49220
L83500 49190
L83400 49190
L83350 49220
L83330 49240
L83300 49290
" />
</g>
</g>
<g style="fill:#008484; fill-opacity:0.0; 
stroke:#008484; stroke-width:0; stroke-opacity:1; 
stroke-linecap:round; stroke-linejoin:round;">
<g >
</g>
<g style="fill:#840000; fill-opacity:0.0; 
stroke:#840000; stroke-width:0; stroke-opacity:1; 
stroke-linecap:round; stroke-linejoin:round;">
</g>
<g style="fill:#FFFFC2; fill-opacity:0.0; 
stroke:#FFFFC2; stroke-width:0; stroke-opacity:1; 
stroke-linecap:round; stroke-linejoin:round;">
</g>
<g style="fill:#FFFFC2; fill-opacity:0.6; 
stroke:#FFFFC2; stroke-width:0; stroke-opacity:1; 
stroke-linecap:round; stroke-linejoin:round;">
<rect x="55000" y="39500" width="7000" height="6000" rx="0" />
</g>
<g style="fill:#840000; fill-opacity:0.6; 
stroke:#840000; stroke-width:0; stroke-opacity:1; 
stroke-linecap:round; stroke-linejoin:round;">
</g>
<g style="fill:#840000; fill-opacity:0.0; 
stroke:#840000; stroke-width:100; stroke-opacity:1; 
stroke-linecap:round; stroke-linejoin:round;">
<rect x="55000" y="39500" width="7000" height="6000" rx="0" />
<rect x="55000" y="39500" width="7000" height="6000" rx="0" />
</g>
<g style="fill:#840000; fill-opacity:0.0; 
stroke:#840000; stroke-width:60; stroke-opacity:1; 
stroke-linecap:round; stroke-linejoin:round;">
<path d="M56000 45500
L56000 46500
" />
</g>
<g style="fill:#008484; fill-opacity:0.0; 
stroke:#008484; stroke-width:60; stroke-opacity:1; 
stroke-linecap:round; stroke-linejoin:round;">
<g transform="rotate(-90 56000 45300)">
<text x="56000" y="45550"
textLength="1990" font-size="660" lengthAdjust="spacingAndGlyphs"
text-anchor="start" opacity="0">ADDR</text>
</g>
<path d="M56080 45170
L56080 44930
" />
<path d="M56220 45220
L55720 45050
L56220 44880
" />
<path d="M56220 44720
L55720 44720
L55720 44600
L55750 44530
L55790 44480
L55840 44460
L55940 44430
L56010 44430
L56100 44460
L56150 44480
L56200 44530
L56220 44600
L56220 44720
" />
<path d="M56220 44220
L55720 44220
L55720 44100
L55750 44030
L55790 43980
L55840 43960
L55940 43930
L56010 43930
L56100 43960
L56150 43980
L56200 44030
L56220 44100
L56220 44220
" />
<path d="M56220 43430
L55980 43600
" />
<path d="M56220 43720
L55720 43720
L55720 43530
L55750 43480
L55770 43460
L55820 43430
L55890 43430
L55940 43460
L55960 43480
L55980 43530
L55980 43720
" />
</g>
<g style="fill:#840000; fill-opacity:0.0; 
stroke:#840000; stroke-width:60; stroke-opacity:1; 
stroke-linecap:round; stroke-linejoin:round;">
<g transform="rotate(-90 55900 46000)">
<text x="55900" y="46000"
textLength="540" font-size="660" lengthAdjust="spacingAndGlyphs"
text-anchor="middle" opacity="0">1</text>
</g>
<path d="M55870 45850
L55870 46140
" />
<path d="M55870 46000
L55370 46000
L55440 46040
L55490 46090
L55510 46140
" />
<path d="M58000 45500
L58000 46500
" />
</g>
<g style="fill:#008484; fill-opacity:0.0; 
stroke:#008484; stroke-width:60; stroke-opacity:1; 
stroke-linecap:round; stroke-linejoin:round;">
<g transform="rotate(-90 58000 45300)">
<text x="58000" y="45550"
textLength="1440" font-size="660" lengthAdjust="spacingAndGlyphs"
text-anchor="start" opacity="0">SCL</text>
</g>
<path d="M58200 45170
L58220 45100
L58220 44980
L58200 44930
L58170 44910
L58130 44880
L58080 44880
L58030 44910
L58010 44930
L57980 44980
L57960 45070
L57940 45120
L57910 45150
L57860 45170
L57820 45170
L57770 45150
L57750 45120
L57720 45070
L57720 44960
L57750 44880
" />
<path d="M58170 44380
L58200 44410
L58220 44480
L58220 44530
L58200 44600
L58150 44650
L58100 44670
L58010 44690
L57940 44690
L57840 44670
L57790 44650
L57750 44600
L57720 44530
L57720 44480
L57750 44410
L57770 44380
" />
<path d="M58220 43930
L58220 44170
L57720 44170
" />
</g>
<g style="fill:#840000; fill-opacity:0.0; 
stroke:#840000; stroke-width:60; stroke-opacity:1; 
stroke-linecap:round; stroke-linejoin:round;">
<g transform="rotate(-90 57900 46000)">
<text x="57900" y="46000"
textLength="1010" font-size="660" lengthAdjust="spacingAndGlyphs"
text-anchor="middle" opacity="0">10</text>
</g>
<path d="M57870 46090
L57870 46380
" />
<path d="M57870 46230
L57370 46230
L57440 46280
L57490 46330
L57510 46380
" />
<path d="M57370 45780
L57370 45730
L57400 45690
L57420 45660
L57470 45640
L57560 45610
L57680 45610
L57780 45640
L57820 45660
L57850 45690
L57870 45730
L57870 45780
L57850 45830
L57820 45850
L57780 45880
L57680 45900
L57560 45900
L57470 45880
L57420 45850
L57400 45830
L57370 45780
" />
<path d="M60000 45500
L60000 46500
" />
</g>
<g style="fill:#008484; fill-opacity:0.0; 
stroke:#008484; stroke-width:60; stroke-opacity:1; 
stroke-linecap:round; stroke-linejoin:round;">
<g transform="rotate(-90 60000 45300)">
<text x="60000" y="45550"
textLength="4180" font-size="660" lengthAdjust="spacingAndGlyphs"
text-anchor="start" opacity="0">ALERT/RDY</text>
</g>
<path d="M60080 45170
L60080 44930
" />
<path d="M60220 45220
L59720 45050
L60220 44880
" />
<path d="M60220 44480
L60220 44720
L59720 44720
" />
<path d="M59960 44310
L59960 44150
" />
<path d="M60220 44070
L60220 44310
L59720 44310
L59720 44070
" />
<path d="M60220 43570
L59980 43740
" />
<path d="M60220 43860
L59720 43860
L59720 43670
L59750 43620
L59770 43600
L59820 43570
L59890 43570
L59940 43600
L59960 43620
L59980 43670
L59980 43860
" />
<path d="M59720 43430
L59720 43150
" />
<path d="M60220 43290
L59720 43290
" />
<path d="M59700 42620
L60340 43050
" />
<path d="M60220 42170
L59980 42340
" />
<path d="M60220 42460
L59720 42460
L59720 42270
L59750 42220
L59770 42190
L59820 42170
L59890 42170
L59940 42190
L59960 42220
L59980 42270
L59980 42460
" />
<path d="M60220 41960
L59720 41960
L59720 41840
L59750 41770
L59790 41720
L59840 41690
L59940 41670
L60010 41670
L60100 41690
L60150 41720
L60200 41770
L60220 41840
L60220 41960
" />
<path d="M59980 41360
L60220 41360
" />
<path d="M59720 41530
L59980 41360
L59720 41190
" />
</g>
<g style="fill:#840000; fill-opacity:0.0; 
stroke:#840000; stroke-width:60; stroke-opacity:1; 
stroke-linecap:round; stroke-linejoin:round;">
<g transform="rotate(-90 59900 46000)">
<text x="59900" y="46000"
textLength="540" font-size="660" lengthAdjust="spacingAndGlyphs"
text-anchor="middle" opacity="0">2</text>
</g>
<path d="M59420 46140
L59400 46110
L59370 46070
L59370 45950
L59400 45900
L59420 45880
L59470 45850
L59510 45850
L59590 45880
L59870 46160
L59870 45850
" />
<path d="M55000 42500
L54000 42500
" />
</g>
<g style="fill:#008484; fill-opacity:0.0; 
stroke:#008484; stroke-width:60; stroke-opacity:1; 
stroke-linecap:round; stroke-linejoin:round;">
<text x="55200" y="42750"
textLength="1580" font-size="660" lengthAdjust="spacingAndGlyphs"
text-anchor="start" opacity="0">GND</text>
<path d="M55610 42250
L55560 42220
L55490 42220
L55420 42250
L55370 42290
L55340 42340
L55320 42440
L55320 42510
L55340 42600
L55370 42650
L55420 42700
L55490 42720
L55530 42720
L55610 42700
L55630 42670
L55630 42510
L55530 42510
" />
<path d="M55840 42720
L55840 42220
L56130 42720
L56130 42220
" />
<path d="M56370 42720
L56370 42220
L56490 42220
L56560 42250
L56610 42290
L56630 42340
L56650 42440
L56650 42510
L56630 42600
L56610 42650
L56560 42700
L56490 42720
L56370 42720
" />
</g>
<g style="fill:#840000; fill-opacity:0.0; 
stroke:#840000; stroke-width:60; stroke-opacity:1; 
stroke-linecap:round; stroke-linejoin:round;">
<text x="54500" y="42400"
textLength="540" font-size="660" lengthAdjust="spacingAndGlyphs"
text-anchor="middle" opacity="0">3</text>
<path d="M54330 41870
L54640 41870
L54470 42060
L54540 42060
L54590 42090
L54610 42110
L54640 42160
L54640 42280
L54610 42320
L54590 42350
L54540 42370
L54400 42370
L54350 42350
L54330 42320
" />
<path d="M59000 39500
L59000 38500
" />
</g>
<g style="fill:#008484; fill-opacity:0.0; 
stroke:#008484; stroke-width:60; stroke-opacity:1; 
stroke-linecap:round; stroke-linejoin:round;">
<g transform="rotate(-90 59000 39700)">
<text x="59000" y="39950"
textLength="1730" font-size="660" lengthAdjust="spacingAndGlyphs"
text-anchor="end" opacity="0">AIN0</text>
</g>
<path d="M59080 41300
L59080 41060
" />
<path d="M59220 41340
L58720 41180
L59220 41010
" />
<path d="M59220 40840
L58720 40840
" />
<path d="M59220 40610
L58720 40610
L59220 40320
L58720 40320
" />
<path d="M58720 39990
L58720 39940
L58750 39890
L58770 39870
L58820 39840
L58910 39820
L59030 39820
L59130 39840
L59170 39870
L59200 39890
L59220 39940
L59220 39990
L59200 40030
L59170 40060
L59130 40080
L59030 40110
L58910 40110
L58820 40080
L58770 40060
L58750 40030
L58720 39990
" />
</g>
<g style="fill:#840000; fill-opacity:0.0; 
stroke:#840000; stroke-width:60; stroke-opacity:1; 
stroke-linecap:round; stroke-linejoin:round;">
<g transform="rotate(-90 58900 39000)">
<text x="58900" y="39000"
textLength="540" font-size="660" lengthAdjust="spacingAndGlyphs"
text-anchor="middle" opacity="0">4</text>
</g>
<path d="M58540 38900
L58870 38900
" />
<path d="M58350 39020
L58700 39140
L58700 38830
" />
<path d="M58000 39500
L58000 38500
" />
</g>
<g style="fill:#008484; fill-opacity:0.0; 
stroke:#008484; stroke-width:60; stroke-opacity:1; 
stroke-linecap:round; stroke-linejoin:round;">
<g transform="rotate(-90 58000 39700)">
<text x="58000" y="39950"
textLength="1730" font-size="660" lengthAdjust="spacingAndGlyphs"
text-anchor="end" opacity="0">AIN1</text>
</g>
<path d="M58080 41300
L58080 41060
" />
<path d="M58220 41340
L57720 41180
L58220 41010
" />
<path d="M58220 40840
L57720 40840
" />
<path d="M58220 40610
L57720 40610
L58220 40320
L57720 40320
" />
<path d="M58220 39820
L58220 40110
" />
<path d="M58220 39960
L57720 39960
L57790 40010
L57840 40060
L57860 40110
" />
</g>
<g style="fill:#840000; fill-opacity:0.0; 
stroke:#840000; stroke-width:60; stroke-opacity:1; 
stroke-linecap:round; stroke-linejoin:round;">
<g transform="rotate(-90 57900 39000)">
<text x="57900" y="39000"
textLength="540" font-size="660" lengthAdjust="spacingAndGlyphs"
text-anchor="middle" opacity="0">5</text>
</g>
<path d="M57370 38880
L57370 39110
L57610 39140
L57590 39110
L57560 39070
L57560 38950
L57590 38900
L57610 38880
L57660 38850
L57780 38850
L57820 38880
L57850 38900
L57870 38950
L57870 39070
L57850 39110
L57820 39140
" />
<path d="M57000 39500
L57000 38500
" />
</g>
<g style="fill:#008484; fill-opacity:0.0; 
stroke:#008484; stroke-width:60; stroke-opacity:1; 
stroke-linecap:round; stroke-linejoin:round;">
<g transform="rotate(-90 57000 39700)">
<text x="57000" y="39950"
textLength="1730" font-size="660" lengthAdjust="spacingAndGlyphs"
text-anchor="end" opacity="0">AIN2</text>
</g>
<path d="M57080 41300
L57080 41060
" />
<path d="M57220 41340
L56720 41180
L57220 41010
" />
<path d="M57220 40840
L56720 40840
" />
<path d="M57220 40610
L56720 40610
L57220 40320
L56720 40320
" />
<path d="M56770 40110
L56750 40080
L56720 40030
L56720 39920
L56750 39870
L56770 39840
L56820 39820
L56860 39820
L56940 39840
L57220 40130
L57220 39820
" />
</g>
<g style="fill:#840000; fill-opacity:0.0; 
stroke:#840000; stroke-width:60; stroke-opacity:1; 
stroke-linecap:round; stroke-linejoin:round;">
<g transform="rotate(-90 56900 39000)">
<text x="56900" y="39000"
textLength="540" font-size="660" lengthAdjust="spacingAndGlyphs"
text-anchor="middle" opacity="0">6</text>
</g>
<path d="M56370 38900
L56370 39000
L56400 39040
L56420 39070
L56490 39110
L56590 39140
L56780 39140
L56820 39110
L56850 39090
L56870 39040
L56870 38950
L56850 38900
L56820 38880
L56780 38850
L56660 38850
L56610 38880
L56590 38900
L56560 38950
L56560 39040
L56590 39090
L56610 39110
L56660 39140
" />
<path d="M56000 39500
L56000 38500
" />
</g>
<g style="fill:#008484; fill-opacity:0.0; 
stroke:#008484; stroke-width:60; stroke-opacity:1; 
stroke-linecap:round; stroke-linejoin:round;">
<g transform="rotate(-90 56000 39700)">
<text x="56000" y="39950"
textLength="1730" font-size="660" lengthAdjust="spacingAndGlyphs"
text-anchor="end" opacity="0">AIN3</text>
</g>
<path d="M56080 41300
L56080 41060
" />
<path d="M56220 41340
L55720 41180
L56220 41010
" />
<path d="M56220 40840
L55720 40840
" />
<path d="M56220 40610
L55720 40610
L56220 40320
L55720 40320
" />
<path d="M55720 40130
L55720 39820
L55910 39990
L55910 39920
L55940 39870
L55960 39840
L56010 39820
L56130 39820
L56170 39840
L56200 39870
L56220 39920
L56220 40060
L56200 40110
L56170 40130
" />
</g>
<g style="fill:#840000; fill-opacity:0.0; 
stroke:#840000; stroke-width:60; stroke-opacity:1; 
stroke-linecap:round; stroke-linejoin:round;">
<g transform="rotate(-90 55900 39000)">
<text x="55900" y="39000"
textLength="540" font-size="660" lengthAdjust="spacingAndGlyphs"
text-anchor="middle" opacity="0">7</text>
</g>
<path d="M55370 39160
L55370 38830
L55870 39040
" />
<path d="M62000 42500
L63000 42500
" />
</g>
<g style="fill:#008484; fill-opacity:0.0; 
stroke:#008484; stroke-width:60; stroke-opacity:1; 
stroke-linecap:round; stroke-linejoin:round;">
<text x="61800" y="42750"
textLength="1490" font-size="660" lengthAdjust="spacingAndGlyphs"
text-anchor="end" opacity="0">VDD</text>
<path d="M60380 42220
L60550 42720
L60720 42220
" />
<path d="M60880 42720
L60880 42220
L61000 42220
L61070 42250
L61120 42290
L61150 42340
L61170 42440
L61170 42510
L61150 42600
L61120 42650
L61070 42700
L61000 42720
L60880 42720
" />
<path d="M61380 42720
L61380 42220
L61500 42220
L61570 42250
L61620 42290
L61650 42340
L61670 42440
L61670 42510
L61650 42600
L61620 42650
L61570 42700
L61500 42720
L61380 42720
" />
</g>
<g style="fill:#840000; fill-opacity:0.0; 
stroke:#840000; stroke-width:60; stroke-opacity:1; 
stroke-linecap:round; stroke-linejoin:round;">
<text x="62500" y="42400"
textLength="540" font-size="660" lengthAdjust="spacingAndGlyphs"
text-anchor="middle" opacity="0">8</text>
<path d="M62450 42090
L62400 42060
L62380 42040
L62350 41990
L62350 41970
L62380 41920
L62400 41900
L62450 41870
L62540 41870
L62590 41900
L62610 41920
L62640 41970
L62640 41990
L62610 42040
L62590 42060
L62540 42090
L62450 42090
L62400 42110
L62380 42130
L62350 42180
L62350 42280
L62380 42320
L62400 42350
L62450 42370
L62540 42370
L62590 42350
L62610 42320
L62640 42280
L62640 42180
L62610 42130
L62590 42110
L62540 42090
" />
<path d="M57000 45500
L57000 46500
" />
</g>
<g style="fill:#008484; fill-opacity:0.0; 
stroke:#008484; stroke-width:60; stroke-opacity:1; 
stroke-linecap:round; stroke-linejoin:round;">
<g transform="rotate(-90 57000 45300)">
<text x="57000" y="45550"
textLength="1460" font-size="660" lengthAdjust="spacingAndGlyphs"
text-anchor="start" opacity="0">SDA</text>
</g>
<path d="M57200 45170
L57220 45100
L57220 44980
L57200 44930
L57170 44910
L57130 44880
L57080 44880
L57030 44910
L57010 44930
L56980 44980
L56960 45070
L56940 45120
L56910 45150
L56860 45170
L56820 45170
L56770 45150
L56750 45120
L56720 45070
L56720 44960
L56750 44880
" />
<path d="M57220 44670
L56720 44670
L56720 44550
L56750 44480
L56790 44430
L56840 44410
L56940 44380
L57010 44380
L57100 44410
L57150 44430
L57200 44480
L57220 44550
L57220 44670
" />
<path d="M57080 44190
L57080 43960
" />
<path d="M57220 44240
L56720 44070
L57220 43910
" />
</g>
<g style="fill:#840000; fill-opacity:0.0; 
stroke:#840000; stroke-width:60; stroke-opacity:1; 
stroke-linecap:round; stroke-linejoin:round;">
<g transform="rotate(-90 56900 46000)">
<text x="56900" y="46000"
textLength="540" font-size="660" lengthAdjust="spacingAndGlyphs"
text-anchor="middle" opacity="0">9</text>
</g>
<path d="M56870 46090
L56870 46000
L56850 45950
L56820 45920
L56750 45880
L56660 45850
L56470 45850
L56420 45880
L56400 45900
L56370 45950
L56370 46040
L56400 46090
L56420 46110
L56470 46140
L56590 46140
L56630 46110
L56660 46090
L56680 46040
L56680 45950
L56660 45900
L56630 45880
L56590 45850
" />
</g>
<g style="fill:#008484; fill-opacity:0.0; 
stroke:#008484; stroke-width:60; stroke-opacity:1; 
stroke-linecap:round; stroke-linejoin:round;">
<text x="63970" y="42310"
textLength="1060" font-size="660" lengthAdjust="spacingAndGlyphs"
text-anchor="middle" opacity="0">U3</text>
<path d="M63580 41780
L63580 42190
L63610 42230
L63630 42260
L63680 42280
L63770 42280
L63820 42260
L63850 42230
L63870 42190
L63870 41780
" />
<path d="M64060 41780
L64370 41780
L64200 41970
L64270 41970
L64320 42000
L64350 42020
L64370 42070
L64370 42190
L64350 42230
L64320 42260
L64270 42280
L64130 42280
L64080 42260
L64060 42230
" />
<text x="65980" y="43220"
textLength="5080" font-size="660" lengthAdjust="spacingAndGlyphs"
text-anchor="middle" opacity="0">ADS1115IDGS</text>
<path d="M63560 43050
L63800 43050
" />
<path d="M63510 43190
L63680 42690
L63840 43190
" />
<path d="M64010 43190
L64010 42690
L64130 42690
L64200 42720
L64250 42760
L64270 42810
L64300 42910
L64300 42980
L64270 43070
L64250 43120
L64200 43170
L64130 43190
L64010 43190
" />
<path d="M64490 43170
L64560 43190
L64680 43190
L64730 43170
L64750 43140
L64770 43100
L64770 43050
L64750 43000
L64730 42980
L64680 42950
L64580 42930
L64530 42910
L64510 42880
L64490 42830
L64490 42790
L64510 42740
L64530 42720
L64580 42690
L64700 42690
L64770 42720
" />
<path d="M65250 43190
L64960 43190
" />
<path d="M65110 43190
L65110 42690
L65060 42760
L65010 42810
L64960 42830
" />
<path d="M65730 43190
L65440 43190
" />
<path d="M65580 43190
L65580 42690
L65530 42760
L65490 42810
L65440 42830
" />
<path d="M66200 43190
L65920 43190
" />
<path d="M66060 43190
L66060 42690
L66010 42760
L65960 42810
L65920 42830
" />
<path d="M66650 42690
L66420 42690
L66390 42930
L66420 42910
L66460 42880
L66580 42880
L66630 42910
L66650 42930
L66680 42980
L66680 43100
L66650 43140
L66630 43170
L66580 43190
L66460 43190
L66420 43170
L66390 43140
" />
<path d="M66890 43190
L66890 42690
" />
<path d="M67130 43190
L67130 42690
L67250 42690
L67320 42720
L67370 42760
L67390 42810
L67420 42910
L67420 42980
L67390 43070
L67370 43120
L67320 43170
L67250 43190
L67130 43190
" />
<path d="M67890 42720
L67840 42690
L67770 42690
L67700 42720
L67650 42760
L67630 42810
L67610 42910
L67610 42980
L67630 43070
L67650 43120
L67700 43170
L67770 43190
L67820 43190
L67890 43170
L67920 43140
L67920 42980
L67820 42980
" />
<path d="M68110 43170
L68180 43190
L68300 43190
L68340 43170
L68370 43140
L68390 43100
L68390 43050
L68370 43000
L68340 42980
L68300 42950
L68200 42930
L68150 42910
L68130 42880
L68110 42830
L68110 42790
L68130 42740
L68150 42720
L68200 42690
L68320 42690
L68390 42720
" />
</g>
</g>
<g style="fill:#008484; fill-opacity:0.0; 
stroke:#008484; stroke-width:0; stroke-opacity:1; 
stroke-linecap:round; stroke-linejoin:round;">
<g >
</g>
<g style="fill:#840000; fill-opacity:0.0; 
stroke:#840000; stroke-width:0; stroke-opacity:1; 
stroke-linecap:round; stroke-linejoin:round;">
</g>
<g style="fill:#FFFFC2; fill-opacity:0.0; 
stroke:#FFFFC2; stroke-width:0; stroke-opacity:1; 
stroke-linecap:round; stroke-linejoin:round;">
</g>
<g style="fill:#FFFFC2; fill-opacity:0.6; 
stroke:#FFFFC2; stroke-width:0; stroke-opacity:1; 
stroke-linecap:round; stroke-linejoin:round;">
<rect x="32000" y="12500" width="11000" height="16000" rx="0" />
</g>
<g style="fill:#840000; fill-opacity:0.6; 
stroke:#840000; stroke-width:0; stroke-opacity:1; 
stroke-linecap:round; stroke-linejoin:round;">
</g>
<g style="fill:#840000; fill-opacity:0.0; 
stroke:#840000; stroke-width:60; stroke-opacity:1; 
stroke-linecap:round; stroke-linejoin:round;">
<rect x="32000" y="12500" width="11000" height="16000" rx="0" />
</g>
<g style="fill:#840000; fill-opacity:0.0; 
stroke:#840000; stroke-width:390; stroke-opacity:1; 
stroke-linecap:round; stroke-linejoin:round;">
<circle cx="37500" cy="20500" r="5000" /> 
</g>
<g style="fill:#840000; fill-opacity:0.0; 
stroke:#840000; stroke-width:60; stroke-opacity:1; 
stroke-linecap:round; stroke-linejoin:round;">
<rect x="32000" y="12500" width="11000" height="16000" rx="0" />
<path d="M35500 28500
L35500 29500
" />
</g>
<g style="fill:#008484; fill-opacity:0.0; 
stroke:#008484; stroke-width:60; stroke-opacity:1; 
stroke-linecap:round; stroke-linejoin:round;">
<g transform="rotate(-90 35500 28100)">
<text x="35500" y="28350"
textLength="1580" font-size="660" lengthAdjust="spacingAndGlyphs"
text-anchor="start" opacity="0">+5V</text>
</g>
<path d="M35530 27950
L35530 27570
" />
<path d="M35720 27760
L35340 27760
" />
<path d="M35220 27090
L35220 27330
L35460 27350
L35440 27330
L35410 27280
L35410 27160
L35440 27110
L35460 27090
L35510 27070
L35630 27070
L35670 27090
L35700 27110
L35720 27160
L35720 27280
L35700 27330
L35670 27350
" />
<path d="M35220 26920
L35720 26760
L35220 26590
" />
</g>
<g style="fill:#840000; fill-opacity:0.0; 
stroke:#840000; stroke-width:60; stroke-opacity:1; 
stroke-linecap:round; stroke-linejoin:round;">
<g transform="rotate(-90 35400 29000)">
<text x="35400" y="29000"
textLength="60" font-size="660" lengthAdjust="spacingAndGlyphs"
text-anchor="middle" opacity="0">~</text>
</g>
<path d="M33500 28500
L33500 29500
" />
</g>
<g style="fill:#008484; fill-opacity:0.0; 
stroke:#008484; stroke-width:60; stroke-opacity:1; 
stroke-linecap:round; stroke-linejoin:round;">
<g transform="rotate(-90 33500 28100)">
<text x="33500" y="28350"
textLength="1580" font-size="660" lengthAdjust="spacingAndGlyphs"
text-anchor="start" opacity="0">GND</text>
</g>
<path d="M33250 27680
L33220 27730
L33220 27800
L33250 27870
L33290 27920
L33340 27950
L33440 27970
L33510 27970
L33600 27950
L33650 27920
L33700 27870
L33720 27800
L33720 27760
L33700 27680
L33670 27660
L33510 27660
L33510 27760
" />
<path d="M33720 27450
L33220 27450
L33720 27160
L33220 27160
" />
<path d="M33720 26920
L33220 26920
L33220 26800
L33250 26730
L33290 26680
L33340 26660
L33440 26640
L33510 26640
L33600 26660
L33650 26680
L33700 26730
L33720 26800
L33720 26920
" />
</g>
<g style="fill:#840000; fill-opacity:0.0; 
stroke:#840000; stroke-width:60; stroke-opacity:1; 
stroke-linecap:round; stroke-linejoin:round;">
<g transform="rotate(-90 33400 29000)">
<text x="33400" y="29000"
textLength="60" font-size="660" lengthAdjust="spacingAndGlyphs"
text-anchor="middle" opacity="0">~</text>
</g>
<path d="M41500 28500
L41500 29500
" />
</g>
<g style="fill:#008484; fill-opacity:0.0; 
stroke:#008484; stroke-width:60; stroke-opacity:1; 
stroke-linecap:round; stroke-linejoin:round;">
<g transform="rotate(-90 41500 28100)">
<text x="41500" y="28350"
textLength="1110" font-size="660" lengthAdjust="spacingAndGlyphs"
text-anchor="start" opacity="0">SW</text>
</g>
<path d="M41700 27970
L41720 27900
L41720 27780
L41700 27730
L41670 27710
L41630 27680
L41580 27680
L41530 27710
L41510 27730
L41480 27780
L41460 27870
L41440 27920
L41410 27950
L41360 27970
L41320 27970
L41270 27950
L41250 27920
L41220 27870
L41220 27760
L41250 27680
" />
<path d="M41220 27520
L41720 27400
L41360 27300
L41720 27210
L41220 27090
" />
</g>
<g style="fill:#840000; fill-opacity:0.0; 
stroke:#840000; stroke-width:60; stroke-opacity:1; 
stroke-linecap:round; stroke-linejoin:round;">
<g transform="rotate(-90 41400 29000)">
<text x="41400" y="29000"
textLength="60" font-size="660" lengthAdjust="spacingAndGlyphs"
text-anchor="middle" opacity="0">~</text>
</g>
<path d="M37500 28500
L37500 29500
" />
</g>
<g style="fill:#008484; fill-opacity:0.0; 
stroke:#008484; stroke-width:60; stroke-opacity:1; 
stroke-linecap:round; stroke-linejoin:round;">
<g transform="rotate(-90 37500 28100)">
<text x="37500" y="28350"
textLength="1460" font-size="660" lengthAdjust="spacingAndGlyphs"
text-anchor="start" opacity="0">VRX</text>
</g>
<path d="M37220 28020
L37720 27850
L37220 27680
" />
<path d="M37720 27230
L37480 27400
" />
<path d="M37720 27520
L37220 27520
L37220 27330
L37250 27280
L37270 27260
L37320 27230
L37390 27230
L37440 27260
L37460 27280
L37480 27330
L37480 27520
" />
<path d="M37220 27070
L37720 26730
" />
<path d="M37220 26730
L37720 27070
" />
</g>
<g style="fill:#840000; fill-opacity:0.0; 
stroke:#840000; stroke-width:60; stroke-opacity:1; 
stroke-linecap:round; stroke-linejoin:round;">
<g transform="rotate(-90 37400 29000)">
<text x="37400" y="29000"
textLength="60" font-size="660" lengthAdjust="spacingAndGlyphs"
text-anchor="middle" opacity="0">~</text>
</g>
<path d="M39500 28500
L39500 29500
" />
</g>
<g style="fill:#008484; fill-opacity:0.0; 
stroke:#008484; stroke-width:60; stroke-opacity:1; 
stroke-linecap:round; stroke-linejoin:round;">
<g transform="rotate(-90 39500 28100)">
<text x="39500" y="28350"
textLength="1420" font-size="660" lengthAdjust="spacingAndGlyphs"
text-anchor="start" opacity="0">VRY</text>
</g>
<path d="M39220 28020
L39720 27850
L39220 27680
" />
<path d="M39720 27230
L39480 27400
" />
<path d="M39720 27520
L39220 27520
L39220 27330
L39250 27280
L39270 27260
L39320 27230
L39390 27230
L39440 27260
L39460 27280
L39480 27330
L39480 27520
" />
<path d="M39480 26920
L39720 26920
" />
<path d="M39220 27090
L39480 26920
L39220 26760
" />
</g>
<g style="fill:#840000; fill-opacity:0.0; 
stroke:#840000; stroke-width:60; stroke-opacity:1; 
stroke-linecap:round; stroke-linejoin:round;">
<g transform="rotate(-90 39400 29000)">
<text x="39400" y="29000"
textLength="60" font-size="660" lengthAdjust="spacingAndGlyphs"
text-anchor="middle" opacity="0">~</text>
</g>
</g>
<g style="fill:#008484; fill-opacity:0.0; 
stroke:#008484; stroke-width:60; stroke-opacity:1; 
stroke-linecap:round; stroke-linejoin:round;">
<text x="43810" y="20840"
textLength="1060" font-size="660" lengthAdjust="spacingAndGlyphs"
text-anchor="middle" opacity="0">U4</text>
<path d="M43420 20310
L43420 20720
L43450 20760
L43470 20790
L43520 20810
L43610 20810
L43660 20790
L43690 20760
L43710 20720
L43710 20310
" />
<path d="M44160 20480
L44160 20810
" />
<path d="M44040 20290
L43920 20640
L44230 20640
" />
<text x="44800" y="21750"
textLength="3040" font-size="660" lengthAdjust="spacingAndGlyphs"
text-anchor="middle" opacity="0">Joystick</text>
<path d="M43570 21220
L43570 21580
L43550 21650
L43500 21700
L43430 21720
L43380 21720
" />
<path d="M43880 21720
L43830 21700
L43810 21670
L43780 21630
L43780 21480
L43810 21440
L43830 21410
L43880 21390
L43950 21390
L44000 21410
L44020 21440
L44050 21480
L44050 21630
L44020 21670
L44000 21700
L43950 21720
L43880 21720
" />
<path d="M44210 21390
L44330 21720
" />
<path d="M44450 21390
L44330 21720
L44280 21840
L44260 21860
L44210 21890
" />
<path d="M44620 21700
L44660 21720
L44760 21720
L44810 21700
L44830 21650
L44830 21630
L44810 21580
L44760 21550
L44690 21550
L44640 21530
L44620 21480
L44620 21460
L44640 21410
L44690 21390
L44760 21390
L44810 21410
" />
<path d="M44970 21390
L45160 21390
" />
<path d="M45050 21220
L45050 21650
L45070 21700
L45120 21720
L45160 21720
" />
<path d="M45330 21720
L45330 21390
" />
<path d="M45330 21220
L45310 21250
L45330 21270
L45350 21250
L45330 21220
L45330 21270
" />
<path d="M45780 21700
L45740 21720
L45640 21720
L45590 21700
L45570 21670
L45550 21630
L45550 21480
L45570 21440
L45590 21410
L45640 21390
L45740 21390
L45780 21410
" />
<path d="M46000 21720
L46000 21220
" />
<path d="M46050 21530
L46190 21720
" />
<path d="M46190 21390
L46000 21580
" />
</g>
</g>
<g style="fill:#008484; fill-opacity:0.0; 
stroke:#008484; stroke-width:0; stroke-opacity:1; 
stroke-linecap:round; stroke-linejoin:round;">
<g >
</g>
<g style="fill:#840000; fill-opacity:0.0; 
stroke:#840000; stroke-width:0; stroke-opacity:1; 
stroke-linecap:round; stroke-linejoin:round;">
</g>
<g style="fill:#FFFFC2; fill-opacity:0.0; 
stroke:#FFFFC2; stroke-width:0; stroke-opacity:1; 
stroke-linecap:round; stroke-linejoin:round;">
</g>
<g style="fill:#FFFFC2; fill-opacity:0.6; 
stroke:#FFFFC2; stroke-width:0; stroke-opacity:1; 
stroke-linecap:round; stroke-linejoin:round;">
<rect x="74000" y="12500" width="11000" height="16000" rx="0" />
</g>
<g style="fill:#840000; fill-opacity:0.6; 
stroke:#840000; stroke-width:0; stroke-opacity:1; 
stroke-linecap:round; stroke-linejoin:round;">
</g>
<g style="fill:#840000; fill-opacity:0.0; 
stroke:#840000; stroke-width:60; stroke-opacity:1; 
stroke-linecap:round; stroke-linejoin:round;">
<rect x="74000" y="12500" width="11000" height="16000" rx="0" />
</g>
<g style="fill:#840000; fill-opacity:0.0; 
stroke:#840000; stroke-width:390; stroke-opacity:1; 
stroke-linecap:round; stroke-linejoin:round;">
<circle cx="79500" cy="20500" r="5000" /> 
</g>
<g style="fill:#840000; fill-opacity:0.0; 
stroke:#840000; stroke-width:60; stroke-opacity:1; 
stroke-linecap:round; stroke-linejoin:round;">
<rect x="74000" y="12500" width="11000" height="16000" rx="0" />
<path d="M77500 28500
L77500 29500
" />
</g>
<g style="fill:#008484; fill-opacity:0.0; 
stroke:#008484; stroke-width:60; stroke-opacity:1; 
stroke-linecap:round; stroke-linejoin:round;">
<g transform="rotate(-90 77500 28100)">
<text x="77500" y="28350"
textLength="1580" font-size="660" lengthAdjust="spacingAndGlyphs"
text-anchor="start" opacity="0">+5V</text>
</g>
<path d="M77530 27950
L77530 27570
" />
<path d="M77720 27760
L77340 27760
" />
<path d="M77220 27090
L77220 27330
L77460 27350
L77440 27330
L77410 27280
L77410 27160
L77440 27110
L77460 27090
L77510 27070
L77630 27070
L77670 27090
L77700 27110
L77720 27160
L77720 27280
L77700 27330
L77670 27350
" />
<path d="M77220 26920
L77720 26760
L77220 26590
" />
</g>
<g style="fill:#840000; fill-opacity:0.0; 
stroke:#840000; stroke-width:60; stroke-opacity:1; 
stroke-linecap:round; stroke-linejoin:round;">
<g transform="rotate(-90 77400 29000)">
<text x="77400" y="29000"
textLength="60" font-size="660" lengthAdjust="spacingAndGlyphs"
text-anchor="middle" opacity="0">~</text>
</g>
<path d="M75500 28500
L75500 29500
" />
</g>
<g style="fill:#008484; fill-opacity:0.0; 
stroke:#008484; stroke-width:60; stroke-opacity:1; 
stroke-linecap:round; stroke-linejoin:round;">
<g transform="rotate(-90 75500 28100)">
<text x="75500" y="28350"
textLength="1580" font-size="660" lengthAdjust="spacingAndGlyphs"
text-anchor="start" opacity="0">GND</text>
</g>
<path d="M75250 27680
L75220 27730
L75220 27800
L75250 27870
L75290 27920
L75340 27950
L75440 27970
L75510 27970
L75600 27950
L75650 27920
L75700 27870
L75720 27800
L75720 27760
L75700 27680
L75670 27660
L75510 27660
L75510 27760
" />
<path d="M75720 27450
L75220 27450
L75720 27160
L75220 27160
" />
<path d="M75720 26920
L75220 26920
L75220 26800
L75250 26730
L75290 26680
L75340 26660
L75440 26640
L75510 26640
L75600 26660
L75650 26680
L75700 26730
L75720 26800
L75720 26920
" />
</g>
<g style="fill:#840000; fill-opacity:0.0; 
stroke:#840000; stroke-width:60; stroke-opacity:1; 
stroke-linecap:round; stroke-linejoin:round;">
<g transform="rotate(-90 75400 29000)">
<text x="75400" y="29000"
textLength="60" font-size="660" lengthAdjust="spacingAndGlyphs"
text-anchor="middle" opacity="0">~</text>
</g>
<path d="M83500 28500
L83500 29500
" />
</g>
<g style="fill:#008484; fill-opacity:0.0; 
stroke:#008484; stroke-width:60; stroke-opacity:1; 
stroke-linecap:round; stroke-linejoin:round;">
<g transform="rotate(-90 83500 28100)">
<text x="83500" y="28350"
textLength="1110" font-size="660" lengthAdjust="spacingAndGlyphs"
text-anchor="start" opacity="0">SW</text>
</g>
<path d="M83700 27970
L83720 27900
L83720 27780
L83700 27730
L83670 27710
L83630 27680
L83580 27680
L83530 27710
L83510 27730
L83480 27780
L83460 27870
L83440 27920
L83410 27950
L83360 27970
L83320 27970
L83270 27950
L83250 27920
L83220 27870
L83220 27760
L83250 27680
" />
<path d="M83220 27520
L83720 27400
L83360 27300
L83720 27210
L83220 27090
" />
</g>
<g style="fill:#840000; fill-opacity:0.0; 
stroke:#840000; stroke-width:60; stroke-opacity:1; 
stroke-linecap:round; stroke-linejoin:round;">
<g transform="rotate(-90 83400 29000)">
<text x="83400" y="29000"
textLength="60" font-size="660" lengthAdjust="spacingAndGlyphs"
text-anchor="middle" opacity="0">~</text>
</g>
<path d="M79500 28500
L79500 29500
" />
</g>
<g style="fill:#008484; fill-opacity:0.0; 
stroke:#008484; stroke-width:60; stroke-opacity:1; 
stroke-linecap:round; stroke-linejoin:round;">
<g transform="rotate(-90 79500 28100)">
<text x="79500" y="28350"
textLength="1460" font-size="660" lengthAdjust="spacingAndGlyphs"
text-anchor="start" opacity="0">VRX</text>
</g>
<path d="M79220 28020
L79720 27850
L79220 27680
" />
<path d="M79720 27230
L79480 27400
" />
<path d="M79720 27520
L79220 27520
L79220 27330
L79250 27280
L79270 27260
L79320 27230
L79390 27230
L79440 27260
L79460 27280
L79480 27330
L79480 27520
" />
<path d="M79220 27070
L79720 26730
" />
<path d="M79220 26730
L79720 27070
" />
</g>
<g style="fill:#840000; fill-opacity:0.0; 
stroke:#840000; stroke-width:60; stroke-opacity:1; 
stroke-linecap:round; stroke-linejoin:round;">
<g transform="rotate(-90 79400 29000)">
<text x="79400" y="29000"
textLength="60" font-size="660" lengthAdjust="spacingAndGlyphs"
text-anchor="middle" opacity="0">~</text>
</g>
<path d="M81500 28500
L81500 29500
" />
</g>
<g style="fill:#008484; fill-opacity:0.0; 
stroke:#008484; stroke-width:60; stroke-opacity:1; 
stroke-linecap:round; stroke-linejoin:round;">
<g transform="rotate(-90 81500 28100)">
<text x="81500" y="28350"
textLength="1420" font-size="660" lengthAdjust="spacingAndGlyphs"
text-anchor="start" opacity="0">VRY</text>
</g>
<path d="M81220 28020
L81720 27850
L81220 27680
" />
<path d="M81720 27230
L81480 27400
" />
<path d="M81720 27520
L81220 27520
L81220 27330
L81250 27280
L81270 27260
L81320 27230
L81390 27230
L81440 27260
L81460 27280
L81480 27330
L81480 27520
" />
<path d="M81480 26920
L81720 26920
" />
<path d="M81220 27090
L81480 26920
L81220 26760
" />
</g>
<g style="fill:#840000; fill-opacity:0.0; 
stroke:#840000; stroke-width:60; stroke-opacity:1; 
stroke-linecap:round; stroke-linejoin:round;">
<g transform="rotate(-90 81400 29000)">
<text x="81400" y="29000"
textLength="60" font-size="660" lengthAdjust="spacingAndGlyphs"
text-anchor="middle" opacity="0">~</text>
</g>
</g>
<g style="fill:#008484; fill-opacity:0.0; 
stroke:#008484; stroke-width:60; stroke-opacity:1; 
stroke-linecap:round; stroke-linejoin:round;">
<text x="85810" y="20840"
textLength="1060" font-size="660" lengthAdjust="spacingAndGlyphs"
text-anchor="middle" opacity="0">U5</text>
<path d="M85420 20310
L85420 20720
L85450 20760
L85470 20790
L85520 20810
L85610 20810
L85660 20790
L85690 20760
L85710 20720
L85710 20310
" />
<path d="M86190 20310
L85950 20310
L85920 20550
L85950 20530
L86000 20500
L86110 20500
L86160 20530
L86190 20550
L86210 20600
L86210 20720
L86190 20760
L86160 20790
L86110 20810
L86000 20810
L85950 20790
L85920 20760
" />
<text x="86800" y="21750"
textLength="3040" font-size="660" lengthAdjust="spacingAndGlyphs"
text-anchor="middle" opacity="0">Joystick</text>
<path d="M85570 21220
L85570 21580
L85550 21650
L85500 21700
L85430 21720
L85380 21720
" />
<path d="M85880 21720
L85830 21700
L85810 21670
L85780 21630
L85780 21480
L85810 21440
L85830 21410
L85880 21390
L85950 21390
L86000 21410
L86020 21440
L86050 21480
L86050 21630
L86020 21670
L86000 21700
L85950 21720
L85880 21720
" />
<path d="M86210 21390
L86330 21720
" />
<path d="M86450 21390
L86330 21720
L86280 21840
L86260 21860
L86210 21890
" />
<path d="M86620 21700
L86660 21720
L86760 21720
L86810 21700
L86830 21650
L86830 21630
L86810 21580
L86760 21550
L86690 21550
L86640 21530
L86620 21480
L86620 21460
L86640 21410
L86690 21390
L86760 21390
L86810 21410
" />
<path d="M86970 21390
L87160 21390
" />
<path d="M87050 21220
L87050 21650
L87070 21700
L87120 21720
L87160 21720
" />
<path d="M87330 21720
L87330 21390
" />
<path d="M87330 21220
L87310 21250
L87330 21270
L87350 21250
L87330 21220
L87330 21270
" />
<path d="M87780 21700
L87740 21720
L87640 21720
L87590 21700
L87570 21670
L87550 21630
L87550 21480
L87570 21440
L87590 21410
L87640 21390
L87740 21390
L87780 21410
" />
<path d="M88000 21720
L88000 21220
" />
<path d="M88050 21530
L88190 21720
" />
<path d="M88190 21390
L88000 21580
" />
</g>
</g>
<g style="fill:#008484; fill-opacity:0.0; 
stroke:#008484; stroke-width:60; stroke-opacity:1; 
stroke-linecap:round; stroke-linejoin:round;">
</g>
<g style="fill:#008400; fill-opacity:0.0; 
stroke:#008400; stroke-width:60; stroke-opacity:1; 
stroke-linecap:round; stroke-linejoin:round;">
<path d="M46500 50000
L57000 50000
" />
<path d="M77500 33000
L77500 29500
" />
<path d="M57000 50000
L57000 46500
" />
<path d="M59000 38500
L79500 38500
" />
<path d="M58000 38500
L58000 37000
" />
<path d="M58000 37000
L81500 37000
" />
<path d="M57000 38500
L57000 37000
" />
<path d="M57000 37000
L37500 37000
" />
<path d="M56000 38500
L56000 35500
" />
<path d="M56000 35500
L39500 35500
" />
<path d="M37500 29500
L37500 37000
" />
<path d="M39500 29500
L39500 35500
" />
<path d="M79500 29500
L79500 38500
" />
<path d="M81500 29500
L81500 37000
" />
<path d="M33500 32500
L33500 29500
" />
<path d="M35500 29500
L35500 32500
" />
<path d="M75500 33000
L75500 29500
" />
<path d="M46500 51000
L58000 51000
" />
<path d="M68000 51500
L68000 51000
" />
<path d="M68000 54500
L68000 55000
" />
<path d="M68000 51000
L75000 51000
" />
<path d="M68000 55000
L75000 55000
" />
<path d="M40500 60000
L40500 59000
" />
<path d="M40500 44000
L37500 44000
" />
<path d="M63000 43000
L63000 42500
" />
<path d="M63000 42500
L63000 42000
" />
<path d="M51500 42500
L54000 42500
" />
<path d="M58000 51000
L58000 46500
" />
</g>
<g style="fill:#840000; fill-opacity:0.0; 
stroke:#840000; stroke-width:60; stroke-opacity:1; 
stroke-linecap:round; stroke-linejoin:round;">
<text x="51190" y="42750"
textLength="1580" font-size="660" lengthAdjust="spacingAndGlyphs"
text-anchor="end" opacity="0">GND</text>
<path d="M50010 42250
L49960 42220
L49890 42220
L49820 42250
L49770 42290
L49750 42340
L49730 42440
L49730 42510
L49750 42600
L49770 42650
L49820 42700
L49890 42720
L49940 42720
L50010 42700
L50040 42670
L50040 42510
L49940 42510
" />
<path d="M50250 42720
L50250 42220
L50540 42720
L50540 42220
" />
<path d="M50770 42720
L50770 42220
L50890 42220
L50960 42250
L51010 42290
L51040 42340
L51060 42440
L51060 42510
L51040 42600
L51010 42650
L50960 42700
L50890 42720
L50770 42720
" />
</g>
<g style="fill:#840000; fill-opacity:0.0; 
stroke:#840000; stroke-width:100; stroke-opacity:1; 
stroke-linecap:round; stroke-linejoin:round;">
<path style="fill:#840000; fill-opacity:0.0; 
stroke:#840000; stroke-width:100; stroke-opacity:1; 
stroke-linecap:round; stroke-linejoin:round;fill:none"
d="M 51500,42500
51250,42060
49500,42060
49500,42500
49500,42940
51250,42940
Z" /> 
</g>
<g style="fill:#840000; fill-opacity:0.0; 
stroke:#840000; stroke-width:60; stroke-opacity:1; 
stroke-linecap:round; stroke-linejoin:round;">
<g transform="rotate(-90 63000 41690)">
<text x="63000" y="41940"
textLength="1580" font-size="660" lengthAdjust="spacingAndGlyphs"
text-anchor="start" opacity="0">+5V</text>
</g>
<path d="M63030 41540
L63030 41160
" />
<path d="M63220 41350
L62840 41350
" />
<path d="M62720 40680
L62720 40920
L62960 40940
L62940 40920
L62910 40870
L62910 40750
L62940 40700
L62960 40680
L63010 40660
L63130 40660
L63170 40680
L63200 40700
L63220 40750
L63220 40870
L63200 40920
L63170 40940
" />
<path d="M62720 40510
L63220 40350
L62720 40180
" />
</g>
<g style="fill:#840000; fill-opacity:0.0; 
stroke:#840000; stroke-width:100; stroke-opacity:1; 
stroke-linecap:round; stroke-linejoin:round;">
<path style="fill:#840000; fill-opacity:0.0; 
stroke:#840000; stroke-width:100; stroke-opacity:1; 
stroke-linecap:round; stroke-linejoin:round;fill:none"
d="M 63000,42000
63440,41750
63440,40000
63000,40000
62560,40000
62560,41750
Z" /> 
</g>
<g style="fill:#840000; fill-opacity:0.0; 
stroke:#840000; stroke-width:60; stroke-opacity:1; 
stroke-linecap:round; stroke-linejoin:round;">
<g transform="rotate(-90 35500 32810)">
<text x="35500" y="33060"
textLength="1580" font-size="660" lengthAdjust="spacingAndGlyphs"
text-anchor="end" opacity="0">+5V</text>
</g>
<path d="M35530 34240
L35530 33860
" />
<path d="M35720 34050
L35340 34050
" />
<path d="M35220 33380
L35220 33620
L35460 33640
L35440 33620
L35410 33570
L35410 33450
L35440 33410
L35460 33380
L35510 33360
L35630 33360
L35670 33380
L35700 33410
L35720 33450
L35720 33570
L35700 33620
L35670 33640
" />
<path d="M35220 33220
L35720 33050
L35220 32880
" />
</g>
<g style="fill:#840000; fill-opacity:0.0; 
stroke:#840000; stroke-width:100; stroke-opacity:1; 
stroke-linecap:round; stroke-linejoin:round;">
<path style="fill:#840000; fill-opacity:0.0; 
stroke:#840000; stroke-width:100; stroke-opacity:1; 
stroke-linecap:round; stroke-linejoin:round;fill:none"
d="M 35500,32500
35060,32750
35060,34500
35500,34500
35940,34500
35940,32750
Z" /> 
</g>
<g style="fill:#840000; fill-opacity:0.0; 
stroke:#840000; stroke-width:60; stroke-opacity:1; 
stroke-linecap:round; stroke-linejoin:round;">
<g transform="rotate(-90 33500 32810)">
<text x="33500" y="33060"
textLength="1580" font-size="660" lengthAdjust="spacingAndGlyphs"
text-anchor="end" opacity="0">GND</text>
</g>
<path d="M33250 33980
L33220 34030
L33220 34100
L33250 34170
L33290 34220
L33340 34240
L33440 34260
L33510 34260
L33600 34240
L33650 34220
L33700 34170
L33720 34100
L33720 34050
L33700 33980
L33670 33950
L33510 33950
L33510 34050
" />
<path d="M33720 33740
L33220 33740
L33720 33450
L33220 33450
" />
<path d="M33720 33220
L33220 33220
L33220 33100
L33250 33030
L33290 32980
L33340 32950
L33440 32930
L33510 32930
L33600 32950
L33650 32980
L33700 33030
L33720 33100
L33720 33220
" />
</g>
<g style="fill:#840000; fill-opacity:0.0; 
stroke:#840000; stroke-width:100; stroke-opacity:1; 
stroke-linecap:round; stroke-linejoin:round;">
<path style="fill:#840000; fill-opacity:0.0; 
stroke:#840000; stroke-width:100; stroke-opacity:1; 
stroke-linecap:round; stroke-linejoin:round;fill:none"
d="M 33500,32500
33060,32750
33060,34500
33500,34500
33940,34500
33940,32750
Z" /> 
</g>
<g style="fill:#840000; fill-opacity:0.0; 
stroke:#840000; stroke-width:60; stroke-opacity:1; 
stroke-linecap:round; stroke-linejoin:round;">
<g transform="rotate(-90 40500 60310)">
<text x="40500" y="60560"
textLength="1580" font-size="660" lengthAdjust="spacingAndGlyphs"
text-anchor="end" opacity="0">GND</text>
</g>
<path d="M40250 61480
L40220 61530
L40220 61600
L40250 61670
L40290 61720
L40340 61740
L40440 61760
L40510 61760
L40600 61740
L40650 61720
L40700 61670
L40720 61600
L40720 61550
L40700 61480
L40670 61450
L40510 61450
L40510 61550
" />
<path d="M40720 61240
L40220 61240
L40720 60950
L40220 60950
" />
<path d="M40720 60720
L40220 60720
L40220 60600
L40250 60530
L40290 60480
L40340 60450
L40440 60430
L40510 60430
L40600 60450
L40650 60480
L40700 60530
L40720 60600
L40720 60720
" />
</g>
<g style="fill:#840000; fill-opacity:0.0; 
stroke:#840000; stroke-width:100; stroke-opacity:1; 
stroke-linecap:round; stroke-linejoin:round;">
<path style="fill:#840000; fill-opacity:0.0; 
stroke:#840000; stroke-width:100; stroke-opacity:1; 
stroke-linecap:round; stroke-linejoin:round;fill:none"
d="M 40500,60000
40060,60250
40060,62000
40500,62000
40940,62000
40940,60250
Z" /> 
</g>
<g style="fill:#840000; fill-opacity:0.0; 
stroke:#840000; stroke-width:60; stroke-opacity:1; 
stroke-linecap:round; stroke-linejoin:round;">
<text x="37190" y="44250"
textLength="1580" font-size="660" lengthAdjust="spacingAndGlyphs"
text-anchor="end" opacity="0">+5V</text>
<path d="M35750 44030
L36130 44030
" />
<path d="M35940 44220
L35940 43840
" />
<path d="M36610 43720
L36370 43720
L36350 43960
L36370 43940
L36420 43910
L36540 43910
L36580 43940
L36610 43960
L36630 44010
L36630 44130
L36610 44170
L36580 44200
L36540 44220
L36420 44220
L36370 44200
L36350 44170
" />
<path d="M36770 43720
L36940 44220
L37110 43720
" />
</g>
<g style="fill:#840000; fill-opacity:0.0; 
stroke:#840000; stroke-width:100; stroke-opacity:1; 
stroke-linecap:round; stroke-linejoin:round;">
<path style="fill:#840000; fill-opacity:0.0; 
stroke:#840000; stroke-width:100; stroke-opacity:1; 
stroke-linecap:round; stroke-linejoin:round;fill:none"
d="M 37500,44000
37250,43560
35500,43560
35500,44000
35500,44440
37250,44440
Z" /> 
</g>
<g style="fill:#840000; fill-opacity:0.0; 
stroke:#840000; stroke-width:60; stroke-opacity:1; 
stroke-linecap:round; stroke-linejoin:round;">
<g transform="rotate(-90 77500 33310)">
<text x="77500" y="33560"
textLength="1580" font-size="660" lengthAdjust="spacingAndGlyphs"
text-anchor="end" opacity="0">+5V</text>
</g>
<path d="M77530 34740
L77530 34360
" />
<path d="M77720 34550
L77340 34550
" />
<path d="M77220 33880
L77220 34120
L77460 34140
L77440 34120
L77410 34070
L77410 33950
L77440 33910
L77460 33880
L77510 33860
L77630 33860
L77670 33880
L77700 33910
L77720 33950
L77720 34070
L77700 34120
L77670 34140
" />
<path d="M77220 33720
L77720 33550
L77220 33380
" />
</g>
<g style="fill:#840000; fill-opacity:0.0; 
stroke:#840000; stroke-width:100; stroke-opacity:1; 
stroke-linecap:round; stroke-linejoin:round;">
<path style="fill:#840000; fill-opacity:0.0; 
stroke:#840000; stroke-width:100; stroke-opacity:1; 
stroke-linecap:round; stroke-linejoin:round;fill:none"
d="M 77500,33000
77060,33250
77060,35000
77500,35000
77940,35000
77940,33250
Z" /> 
</g>
<g style="fill:#840000; fill-opacity:0.0; 
stroke:#840000; stroke-width:60; stroke-opacity:1; 
stroke-linecap:round; stroke-linejoin:round;">
<g transform="rotate(-90 75500 33310)">
<text x="75500" y="33560"
textLength="1580" font-size="660" lengthAdjust="spacingAndGlyphs"
text-anchor="end" opacity="0">GND</text>
</g>
<path d="M75250 34480
L75220 34530
L75220 34600
L75250 34670
L75290 34720
L75340 34740
L75440 34760
L75510 34760
L75600 34740
L75650 34720
L75700 34670
L75720 34600
L75720 34550
L75700 34480
L75670 34450
L75510 34450
L75510 34550
" />
<path d="M75720 34240
L75220 34240
L75720 33950
L75220 33950
" />
<path d="M75720 33720
L75220 33720
L75220 33600
L75250 33530
L75290 33480
L75340 33450
L75440 33430
L75510 33430
L75600 33450
L75650 33480
L75700 33530
L75720 33600
L75720 33720
" />
</g>
<g style="fill:#840000; fill-opacity:0.0; 
stroke:#840000; stroke-width:100; stroke-opacity:1; 
stroke-linecap:round; stroke-linejoin:round;">
<path style="fill:#840000; fill-opacity:0.0; 
stroke:#840000; stroke-width:100; stroke-opacity:1; 
stroke-linecap:round; stroke-linejoin:round;fill:none"
d="M 75500,33000
75060,33250
75060,35000
75500,35000
75940,35000
75940,33250
Z" /> 
</g>
<g style="fill:#840000; fill-opacity:0.0; 
stroke:#840000; stroke-width:60; stroke-opacity:1; 
stroke-linecap:round; stroke-linejoin:round;">
<text x="89810" y="55250"
textLength="1580" font-size="660" lengthAdjust="spacingAndGlyphs"
text-anchor="start" opacity="0">GND</text>
<path d="M90220 54750
L90170 54720
L90100 54720
L90030 54750
L89980 54790
L89950 54840
L89930 54940
L89930 55010
L89950 55100
L89980 55150
L90030 55200
L90100 55220
L90140 55220
L90220 55200
L90240 55170
L90240 55010
L90140 55010
" />
<path d="M90450 55220
L90450 54720
L90740 55220
L90740 54720
" />
<path d="M90980 55220
L90980 54720
L91100 54720
L91170 54750
L91220 54790
L91240 54840
L91260 54940
L91260 55010
L91240 55100
L91220 55150
L91170 55200
L91100 55220
L90980 55220
" />
</g>
<g style="fill:#840000; fill-opacity:0.0; 
stroke:#840000; stroke-width:100; stroke-opacity:1; 
stroke-linecap:round; stroke-linejoin:round;">
<path style="fill:#840000; fill-opacity:0.0; 
stroke:#840000; stroke-width:100; stroke-opacity:1; 
stroke-linecap:round; stroke-linejoin:round;fill:none"
d="M 89500,55000
89750,55440
91500,55440
91500,55000
91500,54560
89750,54560
Z" /> 
</g>
<g style="fill:#840000; fill-opacity:0.0; 
stroke:#840000; stroke-width:60; stroke-opacity:1; 
stroke-linecap:round; stroke-linejoin:round;">
<text x="89810" y="51250"
textLength="1580" font-size="660" lengthAdjust="spacingAndGlyphs"
text-anchor="start" opacity="0">+5V</text>
<path d="M89950 51030
L90340 51030
" />
<path d="M90140 51220
L90140 50840
" />
<path d="M90810 50720
L90570 50720
L90550 50960
L90570 50940
L90620 50910
L90740 50910
L90790 50940
L90810 50960
L90840 51010
L90840 51130
L90810 51170
L90790 51200
L90740 51220
L90620 51220
L90570 51200
L90550 51170
" />
<path d="M90980 50720
L91140 51220
L91310 50720
" />
</g>
<g style="fill:#840000; fill-opacity:0.0; 
stroke:#840000; stroke-width:100; stroke-opacity:1; 
stroke-linecap:round; stroke-linejoin:round;">
<path style="fill:#840000; fill-opacity:0.0; 
stroke:#840000; stroke-width:100; stroke-opacity:1; 
stroke-linecap:round; stroke-linejoin:round;fill:none"
d="M 89500,51000
89750,51440
91500,51440
91500,51000
91500,50560
89750,50560
Z" /> 
</g>
<g style="fill:#840000; fill-opacity:0.0; 
stroke:#840000; stroke-width:0; stroke-opacity:1; 
stroke-linecap:round; stroke-linejoin:round;">
</g>
<g style="fill:#008400; fill-opacity:0.0; 
stroke:#008400; stroke-width:0; stroke-opacity:1; 
stroke-linecap:round; stroke-linejoin:round;">
</g>
<g style="fill:#008400; fill-opacity:1.0; 
stroke:#008400; stroke-width:100; stroke-opacity:1; 
stroke-linecap:round; stroke-linejoin:round;">
<circle cx="63000" cy="42500" r="200" /> 
</g> 
</svg>
